<svg xmlns="http://www.w3.org/2000/svg" viewBox="0 0 348.39 74.13">
  <title>Ресурс 5</title>
  <g id="be63b9c3-2485-4060-ae7f-46e7bbe14ac4" data-name="Слой 2">
    <g id="b171641b-989e-43fa-bc3b-5d66a13d9733" data-name="Слой 1">
      <path d="M323.27,37.84c0,7.45-.27,13.67.1,19.85.24,4-1.05,4.57-4.78,4.83-2.64.18-5.65.08-5.61-2.65.15-13.48,0-27,0-40.45,0-1.05-.24-2.16,1.46-2.24,2.58-.11,5.68-.6,7.56,1.71,4.26,6.17,8.7,12.22,13.07,18.31.76,1.07,1.54,2.11,3,4.12,0-7.66.14-14.17-.06-20.68-.09-2.77.43-3.58,3.52-3.64,1.21,0,2.2,0,3.61,0,2.83,0,3.28,1.07,3.26,3.52-.1,12.41,0,24.82-.1,37.23,0,1.5.1,4.71-1.29,4.86-3.17.34-5.83.35-7.67-2.2-4.58-6.32-9-12.74-13.54-19.1C325.21,40.47,324.62,39.68,323.27,37.84Z" style="fill: #fefefe"/>
      <path d="M216.42,36.44c4-5.65,7.43-10,10.21-14.68,2.24-3.79,4.69-4.59,9.29-4.69,1.65,0,3.33.05,5.83.05-4.58,6.63-8.65,12.84-13.08,18.79-1.79,2.4-1.64,4,.06,6.31,4.58,6.3,8.86,12.81,13.3,19.32-7.88.18-11.37.36-15.28-5.16-1.6-2.25-3.15-4.52-4.72-6.79a38.09,38.09,0,0,0-5.61-6.81c0,5.19-.37,10.42.1,15.57.43,4.65-2.32,4-5.08,3.93s-5.72,1.13-5.58-3.92c.36-12.56.2-25.14,0-37.71,0-2.83.77-3.64,3.62-3.61,6.88.07,6.89-.09,6.89,6.7Z" style="fill: #fdfdfd"/>
      <path d="M262.52,39.34c0-6.28.1-12.56,0-18.83-.06-2.4.36-3.54,3.17-3.46,7.19.2,14.4.13,21.59,0,2.15,0,3.27.22,3.32,2.88.13,7,.29,7-6.66,7-2.3,0-4.61.15-6.89,0-2.89-.23-4.36.24-4.38,3.8s1.5,4,4.38,3.81c2.13-.18,4.33.24,6.42-.1,4.8-.77,6,1.21,5.71,5.76-.2,3.11-.84,4.43-4.12,4.1-2.58-.25-5.23.19-7.8-.11-3.68-.43-4.7,1-4.56,4.54.11,2.74.64,3.86,3.57,3.58,2.73-.27,5.51-.06,8.26-.06,6.58,0,7.84,1.75,6.53,8.36-.44,2.19-1.85,1.67-3.09,1.67-7.51,0-15-.09-22.52.09-2.64.06-3-1.07-2.92-3.25C262.59,52.51,262.52,45.92,262.52,39.34Z" style="fill: #fefefe"/>
      <path d="M63.81,49.89C53.4,33.36,43,16.81,32.48,0,21.72,16.79,11.14,33.33.54,49.85c-.63,1-.92,1.57.34,2.45C11,59.35,21.14,66.49,31.24,73.63a1.78,1.78,0,0,0,2.46,0Q48.49,62.9,63.4,52.32C64.59,51.48,64.48,51,63.81,49.89ZM52.13,40.26c-6-2.52-8.76-6.93-10.62-16.76C43.07,24.58,51.1,37.12,52.13,40.26ZM25,33.59c2.45-7.39,4.88-14.79,7.5-22.76l8.15,24.22c-5.1,0-9.79,0-14.49,0C25,35.07,24.59,34.76,25,33.59ZM23.51,21.92l.71.33c-1.45,4.39-2.41,9-4.51,13.07-1.43,2.76-4.91,4-7.52,5.84l-.59-.63Zm4.24,44L6.2,50.79c4.49-3.22,8.77-6.26,13-9.35,1-.73,1.36-.54,1.71.61,2.4,7.82,4.86,15.62,7.31,23.42Zm4.74-1.2C29.84,56.31,27.42,48.6,25,40.89c-.37-1.18-.18-1.72,1.22-1.7,4.25.07,8.51.08,12.76,0,1.47,0,1.53.59,1.18,1.68C37.67,48.56,35.2,56.26,32.49,64.73Zm4.81,1-.53-.33,7.9-24.77c4.55,3.38,8.86,6.6,13.54,10.07Z" style="fill: #fefefe"/>
      <path d="M184.25,61.11c-2.36-4.11-4.62-8.27-7.14-12.28-1.4-2.22-1.25-3.37,1-5.14a14,14,0,0,0,4.61-16.47,15,15,0,0,0-14.44-10.08c-4.75-.09-9.52.21-14.26-.1-3.41-.23-4,1.09-3.92,4.15.17,12.25.25,24.51,0,36.77-.09,3.85,1.32,4.2,4.64,4.46,4.94.39,6.5-1.36,5.78-6a18.11,18.11,0,0,1,0-5c.17-1.31-1.17-3.33,1.13-3.81s4.09-.15,5.29,2.33c1.67,3.43,3.78,6.64,5.58,10,.88,1.65,1.94,2.54,3.94,2.41,2.56-.16,5.14,0,8,0A7,7,0,0,0,184.25,61.11Zm-19.42-22.6c-5.61.55-4.3-2.93-4.38-5.86-.15-3.3-1.11-6.73,4.61-6.16s8.33,1.94,8.25,6.15S170.9,37.9,164.83,38.51Z" style="fill: #fefefe"/>
      <path d="M115.41,19c-.49-1.47-2.68-2.57-4-2.56-10.41.06-9.53-.21-12.77,9.49-.1.29-.25.56-.35.85l-12,35.48c3.23,0,6,.08,8.7.06,2.17,0,3.18-.76,3.38-2.7.43-4.13,2.9-5,6.6-4.64a54.14,54.14,0,0,0,8.73,0c2.26-.14,3.47.66,3.77,2.9.5,3.8,2.73,4.42,6.39,4.42,1.87,0,3.91,0,6.35,0C125.13,47.58,120.22,33.31,115.41,19Zm-5,26.6c-7.65.09-7.64.25-5.32-6.94.84-2.61,1.66-5.22,2.52-7.81.09-.25.42-.42.91-.89,1.41,4.34,2.7,8.4,4.05,12.44C113.24,44.5,113.29,45.58,110.38,45.61Z" style="fill: #fefefe"/>
    </g>
  </g>
</svg>
