<svg xmlns="http://www.w3.org/2000/svg" viewBox="0 0 520.08 178.48"><title>Ресурс 4</title><path d="M159.1,109.36v23.35c-5.87-2.29-12-1.7-18-1.33-3.32.2-4.67,1.26-4.91,4.61a40.52,40.52,0,0,0,.25,10c.28,1.58.57,3.21-.61,4.61-4.23-1.24-7.92-3.65-11.83-5.57-6.72-3.29-13.36-6.76-20-10.16-.23-.37-.48-.84-.22-1.19,4.21-5.67,6-12.57,9.42-18.63l21.92,11.1V111.35c1.49-4.37,2.13-4.85,6.94-4.88q6.11,0,12.22,0C156.44,106.49,158.24,107.1,159.1,109.36Z" style="fill:#09a8cc"/><path d="M55.11,166.57l-16.69-7.91c2.31-1.07,4-1.88,5.67-2.63,6.68-3,13.4-5.89,20.06-8.93a4.34,4.34,0,0,1,4.22.09c3.71,1.93,7.51,5,11.32,5.09s7.86-2.65,11.55-4.62c3.4-1.81,6.16-1.5,9.5.32,6.7,3.66,13.67,6.81,21.18,10.49l-17.25,8c-14.27-.58-28.54-.12-42.8-.3C59.6,166.12,57.37,166.59,55.11,166.57Z" style="fill:#08aacd"/><path d="M116.45,88c-10.9,5.3-22.06,10-33.2,14.73a1.28,1.28,0,0,1-.45-1.45c2.3-4.28-.49-7.71-2.06-11.2-1-2.25-2.11-4.43-2.92-6.77-.68-2-1.64-3.76-4.28-3.57-.78.06-1.77-.16-1.91-1.31L106,63.38c1.34.67,2.49,0,3.7-.45,2.65-1,4.17-.59,5,2.11,1.59,4.95,4.31,9.38,6.07,14.25,1.44,4,1.14,5-2.45,7A3.78,3.78,0,0,0,116.45,88Z" style="fill:#06a2c8"/><path d="M71.63,78.46c.6.22,1.28.74,1.78.6,2.87-.79,4.23.84,4.9,3.15,1.26,4.33,3.61,8.14,5.41,12.21.85,1.91,1.74,4.07,0,6.19-.42.52-.36,1.42-.52,2.15-10.92,5-21.84,10-33,14.45-.71.32-1-.14-1.09-.69-1.48-7.2-5.61-13.34-8-20.18-.47-1.38-2.72-1.65-2-3.59Z" style="fill:#05abce"/><path d="M39.15,92.75c4.54,3.69,5.06,9.52,7.43,14.35,1.56,3.17,4,6.19,3.67,10.11-5.77,2.62-11.56,5.2-17.3,7.89-1,.47-2.36.46-2.86,1.77-2,.57-3.32-1-4.85-1.79-2.15-1.13-4.34-2.2-6.4-3.5-5.4-2.94-10.7-6.06-16.06-9.07A4.23,4.23,0,0,1,.38,110c9.85-5,20.16-9,30.19-13.58C33.4,95.16,36.29,94,39.15,92.75Z" style="fill:#00b3d3"/><path d="M116.45,88c-.74-1.82.73-2.19,1.83-2.54,2.76-.88,3-2.58,2.11-5-1.87-5.22-4.94-9.92-6.45-15.31-.57-2.06-2-3-4.11-1.45-1.32,1-2.76,1.95-3.87-.33a245.69,245.69,0,0,1,22.6-9.83c1.37-.91,2.48,0,3.56.59,3.72,1.88,7.34,4,10.95,6,4.11,2.13,8.22,4.27,12.25,6.55,1.25.72,2.89,1.09,3.18,2.9C144.58,76,130.58,82.16,116.45,88Z" style="fill:#089ac1"/><path d="M41.77,18.75c12-6.09,24-12.15,36-18.32,1.64-.85,2.79-.29,4.14.42Q98.51,9.6,115.12,18.28a9.78,9.78,0,0,0,1.18.43c-.86,1.95-2.67,1.51-4.18,1.52-8.21.09-16.42,0-24.63,0-13.61,0-27.22,0-40.84,0C45,20.22,42.91,20.84,41.77,18.75Z" style="fill:#08a6ca"/><path d="M41.77,18.75c.95.77,2.07.45,3.12.46H113.2c1,0,2.18.33,3.1-.5l5.25,2.62C112,25.54,103,29.5,94,33.54a3.11,3.11,0,0,1-3-.33q-4.74-2.45-9.51-4.84c-1.48-.74-3-1.31-4.44.05-5.75-.85-11.55-.29-17.32-.72a7.73,7.73,0,0,0-3.75.8c-4.81-2.34-9.63-4.66-14.43-7C39.31,20.39,40.14,19.51,41.77,18.75Z" style="fill:#0ab2d2"/><path d="M19,121.05l11.07,5.82,18.48,10.22c-7.27,3.23-14.22,5.85-20.7,9.35-5.49,3-10.31,3.31-15.33-.5a31.64,31.64,0,0,0-3.91-2.19c-1.14-1.82-.48-3.51.41-5.15C12.24,132.67,16,127,19,121.05Z" style="fill:#09accf"/><path d="M34.55,33.51c7.5,3.41,14.84,7.16,22.1,11.05a5.36,5.36,0,0,1,0,6.08c-2.32,3.51-3.78,7.43-5.87,11-1,1.78-2.37,3.07-4.68,2.37q-9-4.66-18-9.32c-1.22-.62-2.3-1.59-3.76-1.68a1,1,0,0,1-.22-1.44c3.67-5.23,5.95-11.2,8.89-16.82C33.32,34.17,33.49,33.28,34.55,33.51Z" style="fill:#05a9cc"/><path d="M142.94,60.73c-3.7-2-7.38-3.94-11.1-5.85-1-.54-2.18-.89-3.28-1.33-.24-1.45-1.88-1.32-2.58-2.27-1.19-2.12.15-3.86,1.2-5.33,2.74-3.85,5.24-7.85,7.94-11.72a9.26,9.26,0,0,1,4.57-3.92q8.63,3.84,16.88,8.42c.71.88.13,1.61-.33,2.32C151.93,47.69,147.59,54.31,142.94,60.73Z" style="fill:#09a6cb"/><path d="M24.19,58.77a113,113,0,0,1,.09,13.4c.33,3.32.33,3.26-2.83,3.21C16.31,75.29,11.16,75.1,6,74.8,3.56,74.65,2.4,77,.2,76.94V60.07c1.25-5,1.81-5.45,7-5.48,3.67,0,7.33,0,11,0C21.29,54.53,23.47,55.57,24.19,58.77Z" style="fill:#08a6ca"/><path d="M34.55,33.51C31.16,40,28.34,46.86,24.32,53.05h0c-2.55.09-4.32-1.71-6.37-2.73-5.28-2.63-10.36-5.67-15.6-8.38a3.57,3.57,0,0,1-2-2c7.19-4.43,15-7.66,22.45-11.62a2.09,2.09,0,0,1,2.12.1C28.11,30.15,31.33,31.82,34.55,33.51Z" style="fill:#05b6d5"/><path d="M19,121.05c-.82,4.81-3.92,8.49-6.25,12.54-1.85,3.21-4.28,6.16-4.14,10.16-2.77-.57-5-2.38-7.48-3.49a1.73,1.73,0,0,1-1.1-1.79c.2-9.47-.42-19,.33-28.43q8.27,4.81,16.52,9.64C17.63,120.11,18.32,120.59,19,121.05Z" style="fill:#0596c0"/><path d="M113.15,115a19.57,19.57,0,0,1-3.87,9.64c-.13.18-.37.31-.41.49a19.69,19.69,0,0,1-4.92,9.69l-23.56-11.6c8.88-3.89,17.14-7.75,25.6-11.08C108.61,111.12,110.79,113.91,113.15,115Z" style="fill:#00b3d3"/><path d="M55.11,166.57a7.35,7.35,0,0,1,4.77-1.46q20.16.1,40.31,0a6.43,6.43,0,0,1,4.48,1.33c-8,3.9-15.92,7.78-23.86,11.7a2.76,2.76,0,0,1-2.71-.06C70.45,174.23,62.77,170.41,55.11,166.57Z" style="fill:#05b6d5"/><path d="M135.8,150.56c.25-3.76-.8-7.43-.7-11.21.2-8,.48-8.68,8.15-9.07a89.39,89.39,0,0,1,10.22,0,9.77,9.77,0,0,1,5.63,2.4c.05.42.05.86.14,1.28.8,3.77-.94,5.73-4.35,7.25C148.42,144.1,142.15,147.43,135.8,150.56Z" style="fill:#00b7d7"/><path d="M159.1,109.36c-1.6-1.69-3.57-2.08-5.85-2a77.91,77.91,0,0,1-10,0c-3.64-.31-6.55.38-8.16,4,0-.36,0-.73,0-1.1a43.86,43.86,0,0,1,.07-11L159.1,88.45Z" style="fill:#0798c0"/><path d="M46.08,64.05c4.52-.55,4.66-4.9,6.44-7.71,1.06-1.68,1.59-3.7,3-5.27,1.69-1.9,1-4.29,1.14-6.51L78,55c0,1.47-1.17,1.37-1.82,1.66-7.7,3.4-15.39,6.81-23.16,10C50.08,67.89,48.25,65.3,46.08,64.05Z" style="fill:#089ac1"/><path d="M142.94,60.73c-.24-1.71,1-2.82,1.82-4,4.15-5.86,8.2-11.78,11.81-18,1.42.36,2.54.87,2.53,2.73-.06,9,0,18-.07,27.07,0,.36-.34.72-.53,1.08Z" style="fill:#00b3d3"/><path d="M.2,76.94C3,72.11,7.84,73.83,11.64,74s7.48-.13,11.19.57c2.11.4,1.05-1.54,1.45-2.41.63,1.89.18,3.84.37,5.76.14,1.4-.82,1.81-1.83,2.26-6.87,3-13.76,6-20.6,9.1-1.68.76-2.27.55-2.2-1.4C.16,84.25.15,80.59.2,76.94Z" style="fill:#01b5d4"/><path d="M139.69,30.31c-5.12,5.11-8.45,11.51-12.57,17.34A6.14,6.14,0,0,0,126,51.28l-17-9.09c9.55-4.28,18.62-8.37,27.72-12.42A2.43,2.43,0,0,1,139.69,30.31Z" style="fill:#0398c1"/><path d="M.33,40,24.32,53c0,1.91-.09,3.82-.13,5.73a6.5,6.5,0,0,0-6.73-3.29,51.45,51.45,0,0,1-9.37,0C4.21,55.1,1.36,56,.2,60.08A192.7,192.7,0,0,1,.33,40Z" style="fill:#0596c0"/><path d="M55.94,28.5c.82-2.54,3.42-2.16,4.82-1.93,4.2.7,8.36.3,12.53.38A5.13,5.13,0,0,1,77,28.42C74,30,70.88,31.53,67.84,33.15a2.92,2.92,0,0,1-3,0C61.87,31.53,58.9,30,55.94,28.5Z" style="fill:#05b6d5"/><path d="M135.16,99.21q0,5.52-.07,11C134.69,106.57,134.12,102.89,135.16,99.21Z" style="fill:#09a8cc"/><path d="M450,40.53c-8.64-.34-17.8-.31-26.51.1L401.55,70.1c-.89-1.11-1.7-2.11-2.49-3.13-6.78-8.65-12.31-18.23-19.66-26.46-8.71,0-17.23.07-25.95.07h-2.51a39.06,39.06,0,0,1,2.55,3.22c1.85,2.61,2,2.76,3.66,5.05,8.71,11.94,17.07,24.14,26,35.94,2.56,3.39,2.66,6,.08,9.25-7.88,10.07-15,20.73-22.52,31.06-2.6,3.56-8.92,13.4-8.92,13.4h4.9c6.49.11,13-.1,19.47.12,2.88.1,4.47-1,6-3.26,5.51-7.91,11.38-15.56,16.82-23.51,2-3,3.07-3,5.08-.09,5.59,8,11.39,16,17.15,23.88.84,1.16,1.34,2.86,3.18,2.87,8.49,0,17,0,26.21,0-11.17-15.51-21.53-30.2-32.27-44.62-2.45-3.29-2.7-5.34-.19-8.74,10.32-14,20.29-28.31,30.39-42.49" style="fill:#fff"/><path d="M452.73,60.15l19.9.42c0,24.23.06,48.46.19,72.7,0,1.61-.19,3.82.31,5,7.33,0,15.7,0,23,0,.57-.66.67-3.17.68-4.7.15-24.26.18-48.53.23-72.79q10.55-.14,21.07-.27c1.46,0,2.7.33,1.38-2.11-3.17-4.9-6.1-9.54-11.88-17.87-18.3-.34-36.64-.54-54.94,0" style="fill:#fff"/><path d="M243.08,138.14a34.56,34.56,0,0,0,6.33-.95c26.42-6.09,38.84-29.86,36.87-54.18l-.3-2.63c-1.54-21.24-22.74-40.06-44.89-39.86-11.78-.08-23.57-.08-35.35-.3-2.85-.06-3.2,1.17-3.19,3.55q.07,45.81.07,91.63c0,1.11-.22,2.93,1.51,2.93m59-43.29c-1.43,13.7-11.8,23.3-26.39,24.26-3.8.25-7.63,0-11.44,0-.82-.81-.61-1.85-.61-2.82q0-27.14,0-54.28c0-1-.24-2,.68-2.77,6.14-.21,12.27-.31,18.23,1.5C258.06,65.34,265,77.4,263.09,95Z" style="fill:#fff"/><path d="M348.72,40.48l-2-.09-53-.23c-.78,0-1.7-.12-1.81,1.07q-.09,46.92-.23,93.85c0,2.57.65,3.43,3.32,3.41,16.48-.12,33-.05,49.45-.06,1.6,0,2.51,0,4.43.06.28-4.09.35-9.39.35-13,0-6.68-1.15-7.75-7.88-7.87s-13.27,0-19.91,0c-2.76,0-5.07-.61-5-4a120.77,120.77,0,0,1,.47-14.39c1.31-2.09,3.44-1.56,5.36-1.6,6.42-.17,18.77.94,19.9-.84,2.07-3.23.76-9.64,1-14.81.14-3.46-2.06-5-5.39-5.19-3.82-.2-7.65-.11-11.48-.11-10.21,0-10.21,0-9.93-10.15.14-5.16.55-5.61,5.82-5.7,7-.11,14,0,21-.08,4.08-.06,6.08-2,6.16-6.1a93.79,93.79,0,0,0-.44-13.41" style="fill:#fff"/></svg>