<svg xmlns="http://www.w3.org/2000/svg" viewBox="0 0 304.92 101.46">
  <title>Ресурс 1</title>
  <g id="eb3dcfce-b73f-4b15-8144-e0ef36074f4f" data-name="Слой 2">
    <g id="ace4d53b-821e-428b-bf48-7c3b5e7336d0" data-name="Capa 1">
      <path d="M51,0A50.81,50.81,0,0,0,0,50.92c-.18,27.61,22.44,50.33,50.3,50.53A50.73,50.73,0,1,0,51,0ZM9.25,51c.19-23.58,18.53-42,41.66-41.79a41.41,41.41,0,0,1,41.47,42c-.22,23.1-18.84,41.19-42.15,41C27.41,92,9.08,73.57,9.25,51Z" style="fill: #fff"/>
      <path d="M189.66,50.65c0,11.86,8.28,20.32,19.81,20.34s19.81-8.49,19.86-20.33-8.41-20.66-20-20.52S189.63,38.74,189.66,50.65Zm19.8-12.55c7,0,11.48,4.8,11.56,12.29S216.53,63,209.44,63s-11.52-4.83-11.58-12.28C197.81,43,202.34,38.11,209.46,38.1Z" style="fill: #fff"/>
      <path d="M233.88,50.65c0,11.86,8.28,20.32,19.81,20.34s19.8-8.49,19.86-20.33-8.42-20.66-20-20.52S233.84,38.74,233.88,50.65ZM253.47,38.1c7.16-.05,11.76,4.82,11.77,12.45S260.73,63,253.86,63c-7.19,0-11.78-4.81-11.78-12.45S246.56,38.16,253.47,38.1Z" style="fill: #fff"/>
      <path d="M294.5,38.1c-3.6,5.24-6.75,9.83-9.91,14.4-2.13,3.08-4.6,6-6.32,9.27-1.07,2.06-1.16,4.68-1.35,7.08,0,.47,1.5,1.5,2.32,1.51,7.49.12,15,0,22.47.12,2.91.06,2.79-1.65,2.81-3.64,0-2.18-.06-4-3.07-3.86-4.6.16-9.21,0-14.61,0,2-2.91,3.66-5.32,5.34-7.71C295.76,50.2,299.24,45,303,40c2.12-2.8,2.26-5.64,1.49-9.06H277.41c-.12.93-.23,1.9-.37,2.86-.44,3.15.63,4.57,4.08,4.34C285.3,37.89,289.5,38.1,294.5,38.1Z" style="fill: #fff"/>
      <path d="M136,55.44c5.23,0,9.85-.16,14.45.05,2.86.14,3.27-1.19,3.26-3.58s-.29-4.08-3.4-3.94c-4.59.2-9.2.05-14.05.05V38.1c5.08,0,10-.14,15,.06,2.92.11,3.58-1.11,3.57-3.76s-.39-3.88-3.44-3.78c-6.86.22-13.72.14-20.59,0-2.31,0-3,.79-3,3,.07,11.25.12,22.49,0,33.73,0,3,1.49,3.21,3.74,3s4.72.78,4.56-3S136,59.74,136,55.44Z" style="fill: #fff"/>
      <path d="M161,70.44c8.32,0,15.92-.1,23.53,0,2.83.05,2.92-1.49,2.89-3.55s.09-4-3-3.95c-5,.13-10,0-15.54,0V58.85c0-8.24-.16-16.49.07-24.72.1-3.76-2.06-3.41-4.54-3.5s-3.85.34-3.8,3.4c.17,11,.06,22,.08,33C160.67,68.07,160.86,69.14,161,70.44Z" style="fill: #fff"/>
      <path d="M72.1,66.43c.15-1.93,0-3.47-2.5-3.55-.58,0-1.29-1-1.65-1.63-.51-1-.67-2.08-1.12-3.07a9,9,0,0,0-7.92-5.52A7.8,7.8,0,0,0,51,56.92,62.54,62.54,0,0,0,47.21,66c-1.27,3.58-2.92,5.29-4.86,4.61-1.73-.62-2.56-3.73-1.62-6.7a17.1,17.1,0,0,1,1.76-3.78c1.65-2.64,1.55-4.57-.88-6.56a2.78,2.78,0,0,0-2.68.15c-1.61,2.34-2.86,4.92-4.38,7.34-.48.77-1.34,1.78-2.1,1.84-2.44.21-2.24,1.82-2.21,3.43s-.31,3.23,2.11,3.59a3.56,3.56,0,0,1,2.32,2c1.5,4.07,3.83,7,8.5,7.22,3.82.2,7.16-2.14,9-6.58,1.15-2.75,1.89-5.67,3-8.45.65-1.68,1.68-3.8,3.77-2.84,1.23.56,2.63,2.85,2.42,4.09a27.19,27.19,0,0,1-3,8.14c-1.08,2-.86,4.29,1.45,6.43,1.72,1.59,3,0,3.74-1,1.58-2.1,2.68-4.54,4.06-6.8.51-.84,1.19-2.17,1.85-2.2C72,69.84,72.35,68.4,72.1,66.43Z" style="fill: #fff"/>
    </g>
  </g>
</svg>
