<svg xmlns="http://www.w3.org/2000/svg" viewBox="0 0 123.32 15.52"><path d="M103.47,7.88c-.88-.58-1.85-1-2.78-1.52A11.48,11.48,0,0,1,98.94,5.3a1.77,1.77,0,0,1,.22-2.77c1.33-.88,3.52-.39,3.76,1.41,0,0,0,.06.07.06h2c.06,0,.1,0,.08-.09A3.9,3.9,0,0,0,103.6,1a4.66,4.66,0,0,0-2.83-1C95.48,0,95,5.58,97.85,7.35c.32.2,3.12,1.6,4.1,2.21a2,2,0,0,1,.87,2.61,2.55,2.55,0,0,1-2.41,1.29,2.38,2.38,0,0,1-2.26-1.59,3,3,0,0,1-.08-.64.09.09,0,0,0-.08-.07H95.82a.09.09,0,0,0-.08.07,3.46,3.46,0,0,0,1.46,3.23,5.23,5.23,0,0,0,3.22,1.06c3,0,4.5-1.67,4.81-3.4A4,4,0,0,0,103.47,7.88Z" style="fill:#fff"/><path d="M9.28.29h-2a.09.09,0,0,0-.08.05L5.4,6.19a.08.08,0,0,1-.15,0L3.47.34s0-.05-.08-.05H.08A.08.08,0,0,0,0,.36v15a.09.09,0,0,0,.08.07H2.25a.09.09,0,0,0,.08-.07V4a.08.08,0,0,1,.15,0L4.27,9.82l.13.42a.07.07,0,0,0,.08,0H6.14a.1.1,0,0,0,.08,0l.13-.42,1.8-5.89A.08.08,0,0,1,8.3,4V15.32a.09.09,0,0,0,.08.07h2.17a.09.09,0,0,0,.08-.07V.36a.08.08,0,0,0-.08-.07Z" style="fill:#fff"/><path d="M70.26.29a.08.08,0,0,0-.08.05L68.4,6.19a.08.08,0,0,1-.16,0L66.46.34s0-.05-.08-.05h-3.3A.08.08,0,0,0,63,.36v15a.08.08,0,0,0,.07.07h2.17a.09.09,0,0,0,.08-.07V4c0-.09.13-.1.16,0l1.79,5.89.13.42s0,0,.08,0h1.66a.1.1,0,0,0,.08,0l.13-.42,1.79-5.89a.08.08,0,0,1,.16,0V15.32a.09.09,0,0,0,.08.07h2.17a.08.08,0,0,0,.07-.07V.36a.08.08,0,0,0-.07-.07Z" style="fill:#fff"/><path d="M42.27.29H32A.07.07,0,0,0,32,.36V2.23a.08.08,0,0,0,.07.08h4v13a.08.08,0,0,0,.07.07h2.17a.09.09,0,0,0,.08-.07v-13h4a.09.09,0,0,0,.08-.08V.36S42.33.29,42.27.29Z" style="fill:#fff"/><path d="M55.07,15.39h2a.08.08,0,0,0,.08-.1L53,.28A.08.08,0,0,0,53,.23H50.13s-.06,0-.08.05L46,15.29a.07.07,0,0,0,.07.1h2a.09.09,0,0,0,.08-.05L49.29,11a.08.08,0,0,1,.08-.06h4.36a.09.09,0,0,1,.08.06L55,15.34A.09.09,0,0,0,55.07,15.39Zm-5.18-6.6,1.58-5.85a.08.08,0,0,1,.16,0l1.58,5.85a.08.08,0,0,1-.08.1H50A.07.07,0,0,1,49.89,8.79Z" style="fill:#fff"/><path d="M88.74,15.39h2a.07.07,0,0,0,.07-.1L86.72.28a.09.09,0,0,0-.08-.05H83.81a.1.1,0,0,0-.08.05l-4.08,15a.08.08,0,0,0,.08.1h2a.08.08,0,0,0,.08-.05L83,11a.08.08,0,0,1,.08-.06H87.4a.09.09,0,0,1,.08.06l1.18,4.36A.09.09,0,0,0,88.74,15.39Zm-5.18-6.6,1.58-5.85a.08.08,0,0,1,.16,0l1.58,5.85a.07.07,0,0,1-.07.1H83.64A.08.08,0,0,1,83.56,8.79Z" style="fill:#fff"/><path d="M19.43,13.18V8.54a.09.09,0,0,1,.08-.08h5.78a.09.09,0,0,0,.08-.08V6.52a.09.09,0,0,0-.08-.08H19.51a.09.09,0,0,1-.08-.08v-4a.09.09,0,0,1,.08-.08h6.58a.08.08,0,0,0,.07-.08V.38A.08.08,0,0,0,26.09.3h-8.9a.09.09,0,0,0-.08.08V15.32a.09.09,0,0,0,.08.07h9.17a.09.09,0,0,0,.08-.07v-2a.09.09,0,0,0-.08-.08H19.5A.09.09,0,0,1,19.43,13.18Z" style="fill:#fff"/><path d="M123.3,15.26l-7.51-7.73a.08.08,0,0,1,0-.11l6.76-7a.08.08,0,0,0-.06-.13h-2.76a.11.11,0,0,0-.06,0L114,6.26a.08.08,0,0,1-.13,0V.38a.09.09,0,0,0-.08-.08h-2.17a.09.09,0,0,0-.08.08v15a.09.09,0,0,0,.08.08h2.17a.09.09,0,0,0,.08-.08V8.75c0-.07.09-.11.13-.06l6.49,6.69,0,0h2.77S123.35,15.3,123.3,15.26Z" style="fill:#fff"/></svg>