<svg xmlns="http://www.w3.org/2000/svg" viewBox="0 0 33.87 31.35"><path d="M32.08.13,19,9.84l2.44-5.72Z" style="fill:#e17726;stroke:#e17726;stroke-linecap:round;stroke-linejoin:round;stroke-width:0.25px"/><path d="M1.79.13l13,9.8L12.48,4.12Z" style="fill:#e27625;stroke:#e27625;stroke-linecap:round;stroke-linejoin:round;stroke-width:0.25px"/><path d="M27.35,22.66,23.86,28l7.48,2.06,2.15-7.28Z" style="fill:#e27625;stroke:#e27625;stroke-linecap:round;stroke-linejoin:round;stroke-width:0.25px"/><path d="M.4,22.78l2.13,7.28L10,28,6.52,22.66Z" style="fill:#e27625;stroke:#e27625;stroke-linecap:round;stroke-linejoin:round;stroke-width:0.25px"/><path d="M9.6,13.64,7.52,16.78l7.4.33-.24-8Z" style="fill:#e27625;stroke:#e27625;stroke-linecap:round;stroke-linejoin:round;stroke-width:0.25px"/><path d="M24.28,13.64,19.12,9.05,19,17.11l7.4-.33Z" style="fill:#e27625;stroke:#e27625;stroke-linecap:round;stroke-linejoin:round;stroke-width:0.25px"/><path d="M10,28l4.48-2.17-3.86-3Z" style="fill:#e27625;stroke:#e27625;stroke-linecap:round;stroke-linejoin:round;stroke-width:0.25px"/><path d="M19.39,25.83,23.86,28l-.61-5.17Z" style="fill:#e27625;stroke:#e27625;stroke-linecap:round;stroke-linejoin:round;stroke-width:0.25px"/><path d="M23.86,28l-4.47-2.17.36,2.91,0,1.23Z" style="fill:#d5bfb2;stroke:#d5bfb2;stroke-linecap:round;stroke-linejoin:round;stroke-width:0.25px"/><path d="M10,28l4.16,2,0-1.23.35-2.91Z" style="fill:#d5bfb2;stroke:#d5bfb2;stroke-linecap:round;stroke-linejoin:round;stroke-width:0.25px"/><path d="M14.23,20.91l-3.71-1.09,2.62-1.2Z" style="fill:#233447;stroke:#233447;stroke-linecap:round;stroke-linejoin:round;stroke-width:0.25px"/><path d="M19.64,20.91l1.09-2.29,2.64,1.2Z" style="fill:#233447;stroke:#233447;stroke-linecap:round;stroke-linejoin:round;stroke-width:0.25px"/><path d="M10,28l.65-5.34-4.13.12Z" style="fill:#cc6228;stroke:#cc6228;stroke-linecap:round;stroke-linejoin:round;stroke-width:0.25px"/><path d="M23.22,22.66,23.86,28l3.49-5.22Z" style="fill:#cc6228;stroke:#cc6228;stroke-linecap:round;stroke-linejoin:round;stroke-width:0.25px"/><path d="M26.35,16.78l-7.4.33.69,3.8,1.09-2.29,2.64,1.2Z" style="fill:#cc6228;stroke:#cc6228;stroke-linecap:round;stroke-linejoin:round;stroke-width:0.25px"/><path d="M10.52,19.82l2.62-1.2,1.09,2.29.69-3.8-7.4-.33Z" style="fill:#cc6228;stroke:#cc6228;stroke-linecap:round;stroke-linejoin:round;stroke-width:0.25px"/><path d="M7.52,16.78l3.1,6-.1-3Z" style="fill:#e27525;stroke:#e27525;stroke-linecap:round;stroke-linejoin:round;stroke-width:0.25px"/><path d="M23.37,19.82l-.12,3,3.1-6Z" style="fill:#e27525;stroke:#e27525;stroke-linecap:round;stroke-linejoin:round;stroke-width:0.25px"/><path d="M14.92,17.11l-.69,3.8.87,4.48.2-5.91Z" style="fill:#e27525;stroke:#e27525;stroke-linecap:round;stroke-linejoin:round;stroke-width:0.25px"/><path d="M19,17.11l-.36,2.36.18,5.92.87-4.48Z" style="fill:#e27525;stroke:#e27525;stroke-linecap:round;stroke-linejoin:round;stroke-width:0.25px"/><path d="M19.64,20.91l-.87,4.48.62.44,3.86-3,.12-3Z" style="fill:#f5841f;stroke:#f5841f;stroke-linecap:round;stroke-linejoin:round;stroke-width:0.25px"/><path d="M10.52,19.82l.1,3,3.86,3,.62-.44-.87-4.48Z" style="fill:#f5841f;stroke:#f5841f;stroke-linecap:round;stroke-linejoin:round;stroke-width:0.25px"/><path d="M19.72,30l0-1.23-.33-.29h-5l-.32.29,0,1.23L10,28l1.45,1.19,3,2h5.06l3-2L23.86,28Z" style="fill:#c0ac9d;stroke:#c0ac9d;stroke-linecap:round;stroke-linejoin:round;stroke-width:0.25px"/><path d="M19.39,25.83l-.62-.44H15.1l-.62.44-.35,2.91.32-.29h5l.33.29Z" style="fill:#161616;stroke:#161616;stroke-linecap:round;stroke-linejoin:round;stroke-width:0.25px"/><path d="M32.64,10.48l1.11-5.37-1.67-5L19.39,9.52l4.89,4.12,6.89,2,1.52-1.78L32,13.39l1-1-.8-.62,1-.8Z" style="fill:#763e1a;stroke:#763e1a;stroke-linecap:round;stroke-linejoin:round;stroke-width:0.25px"/><path d="M.13,5.11l1.11,5.37L.53,11l1.06.8-.8.62,1.05,1-.66.48L2.7,15.65l6.9-2,4.88-4.12L1.79.13Z" style="fill:#763e1a;stroke:#763e1a;stroke-linecap:round;stroke-linejoin:round;stroke-width:0.25px"/><path d="M31.17,15.65l-6.89-2,2.07,3.14-3.1,6,4.1,0h6.14Z" style="fill:#f5841f;stroke:#f5841f;stroke-linecap:round;stroke-linejoin:round;stroke-width:0.25px"/><path d="M9.6,13.64l-6.9,2L.4,22.78H6.52l4.1,0-3.1-6Z" style="fill:#f5841f;stroke:#f5841f;stroke-linecap:round;stroke-linejoin:round;stroke-width:0.25px"/><path d="M19,17.11l.44-7.59,2-5.4H12.48l2,5.4.44,7.59.17,2.39v5.89h3.67V19.5Z" style="fill:#f5841f;stroke:#f5841f;stroke-linecap:round;stroke-linejoin:round;stroke-width:0.25px"/></svg>