<svg xmlns="http://www.w3.org/2000/svg" viewBox="0 0 18.45 5.45"><title>Ресурс 1</title><g style="isolation:isolate"><path d="M8.29,3.64A1.44,1.44,0,0,0,9,3.86c.43,0,.69-.23.69-.56s-.18-.48-.62-.65-.86-.46-.86-.92A.94.94,0,0,1,9.3.84,1.55,1.55,0,0,1,10,1l-.12.34a1.41,1.41,0,0,0-.62-.15c-.44,0-.61.27-.61.49s.19.45.64.63.84.48.84,1-.38.94-1.15.94A1.78,1.78,0,0,1,8.18,4Z" style="fill:var(--form-bright-text-color)"/><path d="M12.68,3.52a6.32,6.32,0,0,0,0,.64h-.38l0-.39h0a.87.87,0,0,1-.77.44c-.37,0-.81-.21-.81-1V1.81h.43v1.3c0,.45.13.75.52.75a.61.61,0,0,0,.56-.39.51.51,0,0,0,0-.22V1.81h.43Z" style="fill:var(--form-bright-text-color)"/><path d="M13.32,3.72a1.16,1.16,0,0,0,.56.17c.31,0,.46-.16.46-.35s-.12-.31-.44-.43-.62-.38-.62-.66a.73.73,0,0,1,.81-.69,1.15,1.15,0,0,1,.58.15l-.11.31a.88.88,0,0,0-.48-.14c-.25,0-.39.15-.39.32s.14.28.45.4.61.35.61.7-.32.71-.88.71A1.28,1.28,0,0,1,13.22,4Z" style="fill:var(--form-bright-text-color)"/><path d="M15.3.72h.42V2.18h0a.81.81,0,0,1,.31-.3.86.86,0,0,1,.43-.12c.32,0,.82.19.82,1v1.4h-.43V2.81c0-.38-.14-.7-.54-.7a.63.63,0,0,0-.57.43.6.6,0,0,0,0,.2V4.16H15.3Z" style="fill:var(--form-bright-text-color)"/><path d="M18.45,1.16a.26.26,0,1,1-.52,0,.26.26,0,0,1,.26-.27A.25.25,0,0,1,18.45,1.16Zm-.47,3V1.81h.43V4.16Z" style="fill:var(--form-bright-text-color)"/></g><path d="M5.73,3.4C6,2.82,5.32,1.75,4.18.91S1.63-.28,1.23.27h0L.08,2h0c-.32.57.35,1.67,1.54,2.52s2.55,1.15,2.93.6h0Z" style="fill:#e15ca8"/><path d="M5.73,3.43l-.09.16-1,1.53a.68.68,0,0,1-.34.26L4,5.44H3.51a4.68,4.68,0,0,1-.73-.21,5.92,5.92,0,0,1-1-.52A7.47,7.47,0,0,1,1,4.12H1L1.24,4a.8.8,0,0,0,.21-.15l.09-.08.09-.09.09-.1L2,3.33l.19-.11a.17.17,0,0,1,.14,0,.57.57,0,0,1,.25.08.76.76,0,0,1,.21.19,2.48,2.48,0,0,1,.25.3,1.06,1.06,0,0,0,.17.2,1,1,0,0,0,.36.23,1,1,0,0,0,.24,0,.5.5,0,0,0,.27-.11h0L4.2,4l.07-.07.06-.06a.22.22,0,0,1,.07-.09.78.78,0,0,1,.11-.18H5a.88.88,0,0,0,.32-.07.54.54,0,0,0,.22-.17.52.52,0,0,0,.08-.19,1.4,1.4,0,0,0,0-.29,1.83,1.83,0,0,0-.08-.25H5.7a1.37,1.37,0,0,1,.07.24V3a1.22,1.22,0,0,1,0,.27A.58.58,0,0,1,5.73,3.43Z" style="fill:#4a0075"/><ellipse cx="3.42" cy="1.92" rx="1.07" ry="2.57" transform="translate(-0.11 3.63) rotate(-55.2)" style="fill:#fdfdfd"/><ellipse cx="3.42" cy="1.92" rx="0.5" ry="1.33" transform="translate(-0.11 3.63) rotate(-55.2)" style="fill:#b76db9"/></svg>