<?xml version="1.0" encoding="utf-8"?>
<!-- Generator: Adobe Illustrator 24.0.2, SVG Export Plug-In . SVG Version: 6.00 Build 0)  -->
<svg version="1.1" id="Слой_1" xmlns="http://www.w3.org/2000/svg" xmlns:xlink="http://www.w3.org/1999/xlink" x="0px" y="0px"
	 viewBox="0 0 96 96" style="enable-background:new 0 0 96 96;" xml:space="preserve">
<style type="text/css">
	.st0{fill:#FF7733;}
</style>
<title>turex</title>
<g id="bdad7f32-f83a-42f4-ae9c-ace4255a3324">
	<g id="a05c1a24-2db4-4780-9c8b-7fc8ae35ed45">
		<path class="st0" d="M48,0C21.5,0,0,21.5,0,48s21.5,48,48,48s48-21.5,48-48S74.5,0,48,0z M75.2,78.9c-7.5,6.9-17.4,10.6-27.6,10.3
			c-11,0-21.6-4.6-29.2-12.6c-8.7-8.9-11.8-20-11.5-32.8C7.3,35,11.8,25,20.8,17c7.6-6.9,17.5-10.5,27.7-10.2
			c11.7,0,22.7,5.1,30.3,14c6.8,7.6,10.5,17.4,10.3,27.6C89.2,60.1,84.1,71.3,75.2,78.9z"/>
		<path class="st0" d="M48,55H24c-0.4,0-0.7-0.2-0.9-0.5c-2.4-4.3-4.9-8.6-7.3-13c-0.5-0.9-1.1-1.9-1.6-2.8
			c-0.1-0.2-0.1-0.5,0.1-0.6c1-0.9,1.9-1.9,2.9-2.8c2.3-2.3,4.7-4.5,7-6.8c1-0.9,1.9-1.9,2.9-2.8c0.2-0.2,0.3-0.2,0.5,0
			c0.6,0.7,1.2,1.4,1.9,2.1c0.2,0.2,0.2,0.3,0,0.5c-1.8,3.1-3.6,6.2-5.5,9.3c-0.3,0.6-0.6,1.1-1,1.6c-0.1,0.2-0.1,0.3,0,0.4
			c1.4,2.5,2.7,5,4.1,7.5c0.1,0.3,0.4,0.3,0.6,0.3h40.2c0.3,0,0.6-0.1,0.8-0.4c1.3-2.5,2.7-4.9,4.1-7.4c0.1-0.2,0.1-0.4,0-0.6
			c-2.1-3.6-4.1-7.2-6.2-10.7c-0.2-0.3-0.2-0.5,0.1-0.7c0.6-0.7,1.1-1.4,1.7-2.1c0.2-0.2,0.3-0.2,0.5,0c2.6,2.5,5.2,5,7.8,7.6
			c1.6,1.6,3.2,3.1,4.9,4.7c0.3,0.2,0.4,0.7,0.2,1l-8.1,14.4c-0.2,0.4-0.5,0.8-0.7,1.3c-0.1,0.3-0.3,0.3-0.6,0.3h-3.9
			C61.5,55,54.8,55,48,55z"/>
		<path class="st0" d="M63.8,59.2c-0.7,1.3-1.3,2.6-1.9,3.8c-1.7,3.5-3.5,7-5.2,10.6c-0.1,0.3-0.4,0.5-0.8,0.5h-16
			c-0.4,0-0.6-0.1-0.7-0.4c-2.3-4.7-4.6-9.4-7-14.1c-0.1-0.3-0.1-0.4,0.2-0.4h7.7c0.3,0,0.4,0.1,0.5,0.4c1.2,2.3,2.4,4.7,3.6,7
			c0.1,0.3,0.4,0.4,0.7,0.4H51c0.3,0,0.5-0.1,0.6-0.4c1.2-2.4,2.4-4.7,3.6-7.1c0.1-0.2,0.3-0.3,0.5-0.3H63.8z"/>
	</g>
</g>
</svg>
