<?xml version="1.0" encoding="utf-8"?>
<!-- Generator: Adobe Illustrator 26.4.1, SVG Export Plug-In . SVG Version: 6.00 Build 0)  -->
<svg version="1.1" id="Слой_1" xmlns="http://www.w3.org/2000/svg" xmlns:xlink="http://www.w3.org/1999/xlink" x="0px" y="0px"
	 viewBox="0 0 1920 398" style="enable-background:new 0 0 1920 398;" xml:space="preserve">
<style type="text/css">
	.st0{fill:#6B6B6B;}
	.st1{fill:#3A9F64;}
</style>
<path class="st0" d="M172.1,123.9h64.6c-0.5-52.2-42.1-87.5-107-87.5c-63.8,0-109.8,34.8-109.4,86.7c-0.1,42.4,29.6,66.3,77.9,77.3
	l29.2,6.8c30.7,7.1,44.5,15.4,44.7,31.1c-0.3,17-16.2,28.9-43.4,28.9c-29.9,0-49.5-13.9-51-40.8H13.1c0.8,65.3,46.2,96.5,116.5,96.5
	c69.5,0,110.7-31.5,111-84.5c-0.3-44.6-30.4-71.9-85.5-84l-24-5.5c-25.4-5.5-41.5-13.9-40.9-30.5c0.1-15.3,13.2-26.3,39.4-26.3
	C155.9,92.1,170.3,104,172.1,123.9z M313.8,319.4h71.5l32.7-122h2.3l32.7,122h71.3L579,110h-67l-27.4,133.2h-1.8L451.7,110h-65.3
	l-30.3,134.2h-1.8L326.1,110h-67L313.8,319.4z M664.8,323c29.2,0,49.4-11.3,60.8-32.7h1.6v29.2H790V177.1
	c0-44.3-39.4-69.8-92.7-69.8c-56.3,0-88.2,28.4-93.5,66.5l61.5,2.2c2.9-13.4,13.9-21.5,31.5-21.5c16.4,0,26.7,7.9,26.7,22v0.7
	c0,12.8-13.9,15.5-49.6,18.7c-42.4,3.5-77.9,19.2-77.9,65.6C595.9,302.8,624.7,323,664.8,323z M685.4,279.3
	c-15.4,0-26.3-7.4-26.3-21.3c0-13.5,10.6-21.7,29.6-24.5c12.4-1.8,27.7-4.5,35.2-8.5v19.9C723.9,265.4,706.7,279.3,685.4,279.3z
	 M830.8,398h66.7V285.5h1.4c8.5,19.4,27.3,37,58.9,37c46.4,0,83.7-36.3,83.7-107.6c0-73.9-39.5-107.6-83.3-107.6
	c-33.1,0-51.3,19.4-59.3,38.6h-2V110h-66v288H830.8z M896.1,214.7c0-34.2,14.2-55.4,38.6-55.4c24.7,0,38.3,21.7,38.3,55.4
	c0,33.8-13.6,55.8-38.3,55.8C910.3,270.5,896.1,248.6,896.1,214.7z"/>
<path class="st1" d="M1329.9,141.3c-6.8-66.8-56.6-105-124.1-105c-74.5,0-132.4,51.1-132.4,143.5c0,91.9,56.6,143.5,132.4,143.5
	c76.6,0,119-52.1,124.1-101.6l-68.2-0.4c-4.8,26.9-25,42.8-54.5,42.8c-39.8,0-64.9-28.8-64.9-84.3c0-53.3,24.5-84.3,65.3-84.3
	c30.7,0,50.7,17.9,54.1,45.8L1329.9,141.3L1329.9,141.3z M1466.3,323.4c65.9,0,105.8-43.5,105.8-108c0-64.6-39.9-108.1-105.8-108.1
	s-105.8,43.5-105.8,108.1C1360.5,279.9,1400.4,323.4,1466.3,323.4z M1466.7,273.1c-24.7,0-38.3-23.5-38.3-58.1
	c0-34.8,13.6-58.4,38.3-58.4c23.9,0,37.5,23.6,37.5,58.4C1504.2,249.6,1490.6,273.1,1466.7,273.1z M1606.3,319.4h66.7V110h-66.7
	V319.4z M1639.7,85.6c19,0,34.2-14.3,34.2-31.9s-15.3-31.8-34.2-31.8c-18.8,0-34.2,14.2-34.2,31.8
	C1605.4,71.2,1620.9,85.6,1639.7,85.6z M1782.1,200c0.1-23.9,14.1-38,35.2-38s33.7,13.9,33.5,37.1v120.4h66.7V185.9
	c0.1-47.2-28.6-78.7-72.7-78.7c-31,0-54.4,15.7-63.7,41.2h-2.3v-38.5h-63.4v209.5h66.7L1782.1,200L1782.1,200z"/>
</svg>
