<?xml version="1.0" encoding="utf-8"?>
<!-- Generator: Adobe Illustrator 24.0.2, SVG Export Plug-In . SVG Version: 6.00 Build 0)  -->
<svg version="1.1" id="Слой_1" xmlns="http://www.w3.org/2000/svg" xmlns:xlink="http://www.w3.org/1999/xlink" x="0px" y="0px"
	 viewBox="0 0 178 34" style="enable-background:new 0 0 178 34;" xml:space="preserve">
<style type="text/css">
	.st0{fill:#FFFFFF;}
	.st1{fill:#6B6B6B;}
</style>
<path d="M16.2,32.8c-4.3,0-8.4-1.7-11.4-4.8C1.7,24.9,0,20.8,0,16.5C0,12.1,1.7,8,4.7,4.9c3.1-3.1,7.1-4.8,11.4-4.8
	c4.3,0,8.4,1.7,11.4,4.8c3.1,3.1,4.7,7.2,4.7,11.5c0,4.4-1.7,8.5-4.7,11.5C24.5,31.1,20.5,32.8,16.2,32.8z"/>
<path class="st0" d="M16.6,32.9h6.3c0-2.9,3.2-7.1,3.2-13.3c0-5.3-0.9-8.2-1.4-9.6c-0.4-1.1-0.9-1.8-2-1.8c-1.1,0-2.1,0.4-2.4,2.9
	C19.4,18.4,16.1,22.7,16.6,32.9z"/>
<path class="st0" d="M15.6,32.9H9.3c0-2.9-3.2-7.1-3.2-13.3c0-5.3,0.9-8.2,1.4-9.6c0.4-1.1,0.9-1.8,2-1.8c1.1,0,2.1,0.4,2.4,2.9
	C12.8,18.4,16.1,22.7,15.6,32.9z"/>
<path d="M23.1,33.1h-6.6v-0.2c-0.3-6.4,0.9-10.4,2-14.4c0.7-2.4,1.3-4.7,1.7-7.5c0.1-1.2,0.5-2,1-2.5C21.5,8.2,22,8,22.7,8
	c1.2,0,1.7,0.7,2.2,1.9c0.9,2.3,1.4,5.7,1.4,9.6c0,3.8-1.1,6.8-2.1,9.2c-0.6,1.6-1.1,3-1.1,4.1V33.1z M16.8,32.7h6
	c0.1-1.2,0.6-2.5,1.2-4.1c0.9-2.4,2-5.4,2-9.1c0-3.9-0.5-7.2-1.4-9.5c-0.5-1.2-1-1.6-1.9-1.6c-1,0-2,0.3-2.3,2.7
	c-0.3,2.8-1,5.1-1.7,7.5C17.7,22.5,16.6,26.5,16.8,32.7z"/>
<path d="M15.8,33.1H9.2v-0.2c0-1.2-0.5-2.5-1.1-4.1C7.2,26.3,6,23.3,6,19.6c0-4,0.5-7.3,1.4-9.6c0.4-1.1,1-1.9,2.2-1.9
	c0.7,0,1.2,0.2,1.6,0.6c0.5,0.5,0.8,1.3,1,2.5c0.3,2.8,1,5,1.7,7.5c1.1,3.9,2.3,8,2,14.4V33.1z M9.6,32.7h6c0.3-6.2-0.9-10.2-2-14.1
	c-0.7-2.4-1.3-4.7-1.7-7.5c-0.3-2.4-1.3-2.7-2.3-2.7c-0.9,0-1.4,0.4-1.9,1.6c-0.9,2.3-1.4,5.6-1.4,9.5c0,3.7,1.1,6.7,2,9.1
	C9,30.2,9.5,31.5,9.6,32.7z"/>
<path d="M16.2,33H16c-1.4,0-2.5-0.7-3.3-2.2c-0.7-1.2-1.1-3-1.2-5c-0.2-3.9-0.6-11.3-0.9-14.6c-0.1-1.5-0.6-1.6-1-1.6
	c-0.5,0-0.8,0.4-1.1,1.4c-0.3,0.9-1.1,5.3-0.8,9.8c0.2,2.7,1.1,5,1.9,7c0.7,1.8,1.3,3.4,1.3,5h-0.3c0-1.5-0.6-3.1-1.3-4.9
	c-0.8-2-1.7-4.3-1.9-7.1C7,16.4,7.9,12,8.2,11c0.2-0.9,0.6-1.7,1.4-1.7c0.8,0,1.2,0.6,1.3,1.9c0.3,3.3,0.7,10.7,0.9,14.6
	c0.1,2,0.5,3.6,1.2,4.8c0.7,1.3,1.8,2,3,2h0.2c0.7,0,1.2-0.2,1.8-0.5c0.5-0.3,0.9-0.8,1.3-1.5c0.7-1.2,1.1-2.9,1.2-4.8
	c0.2-3.9,0.6-11.3,0.9-14.6c0.1-1.3,0.5-1.9,1.3-1.9c0.8,0,1.2,0.8,1.4,1.7c0.3,0.9,1.2,5.4,0.8,9.9C24.7,23.6,23.8,26,23,28
	c-0.7,1.8-1.3,3.4-1.3,4.9h-0.3c0-1.6,0.6-3.2,1.3-5c0.8-2,1.6-4.3,1.9-7.1c0.4-4.4-0.5-8.8-0.8-9.8c-0.3-1-0.6-1.4-1.1-1.4
	c-0.4,0-0.9,0.1-1,1.6c-0.3,3.3-0.7,10.7-0.9,14.6c-0.1,2-0.6,3.7-1.3,5C18.7,32.2,17.5,33,16.2,33z"/>
<path class="st0" d="M18.6,8.3v0.2c-1.5,0.3-2.1,0.9-2.4,2.4H16c-0.3-1.6-0.8-2.1-2.4-2.4V8.3c1.5-0.3,2.1-0.9,2.4-2.4h0.3
	C16.6,7.4,17.2,7.9,18.6,8.3z"/>
<path d="M16.2,32.8c-4.3,0-8.4-1.7-11.4-4.8C1.7,24.9,0,20.8,0,16.5C0,12.1,1.7,8,4.7,4.9c3.1-3.1,7.1-4.8,11.4-4.8
	c4.3,0,8.4,1.7,11.4,4.8c3.1,3.1,4.7,7.2,4.7,11.5c0,4.4-1.7,8.5-4.7,11.5C24.5,31.1,20.5,32.8,16.2,32.8z M16.2,0.5
	C7.5,0.5,0.4,7.7,0.4,16.5c0,8.8,7.1,15.9,15.8,15.9c8.7,0,15.8-7.1,15.8-15.9C31.9,7.7,24.8,0.5,16.2,0.5z"/>
<path class="st1" d="M171,11.3c-3.8,0-6.9,3.1-6.9,7s3.1,7,6.9,7s6.9-3.1,6.9-7S174.8,11.3,171,11.3z M171,23.4c-2.8,0-5-2.3-5-5.1
	c0-2.8,2.3-5.1,5-5.1c2.8,0,5,2.3,5,5.1C176,21.1,173.8,23.4,171,23.4z"/>
<path class="st1" d="M93.3,11.3c-2,0-3.4,1.6-3.9,2.8v-2.3h-5.7v1.9h3.9V23l-3.9,0v1.9l10.5,0V23h-4.8v-5.8c0-0.9,0.7-4,3.3-4
	c0.8,0,1.5,0.2,2,0.8c-0.2,0.2-0.3,0.6-0.3,0.9c0,0.8,0.7,1.5,1.5,1.5c0.9,0,1.5-0.7,1.5-1.6C97.4,13.2,95.7,11.3,93.3,11.3z"/>
<path class="st1" d="M142.3,11.3c-2,0-3.4,1.6-3.9,2.8v-2.3l-5.7,0v1.9h3.9v9.1l-3.9,0v1.9l10.5,0v-1.9h-4.8v-5.8c0-0.9,0.7-4,3.3-4
	c0.8,0,1.5,0.2,2,0.8c-0.2,0.2-0.3,0.6-0.3,0.9c0,0.8,0.7,1.5,1.5,1.5c0.9,0,1.5-0.7,1.5-1.6C146.4,13.2,144.7,11.3,142.3,11.3z"/>
<path class="st1" d="M111,17.5c0.8,0,1.5-0.7,1.5-1.5c0-0.1,0-0.1,0-0.2c-0.2-1.7-2.9-4.4-6.3-4.4c-3.9,0-7,3.1-7,7c0,3.9,3.1,7,7,7
	c2.7,0,5-1.5,6.2-3.7l-1.5-1c-0.9,1.7-2.7,2.8-4.7,2.8c-2.8,0-5-2.3-5-5.1c0-2.8,2.2-5.1,5-5.1c1.6,0,2.9,0.6,3.7,1.6
	c-0.3,0.3-0.4,0.6-0.4,1C109.5,16.8,110.1,17.5,111,17.5z"/>
<path class="st1" d="M157.5,13.8h1.6l-3.4,8.8l-3.7-8.8h1.6v-1.9h-5.5v1.9h1.9l4.7,11.4l-2.6,6.8h2l6.9-18.2h2v-1.9h-5.5V13.8z"/>
<path class="st1" d="M63.6,16.8c0-3.4-2.2-5.5-5-5.5c-2.2,0-4,1.6-4.8,3.2c-0.8-2-2.5-3.2-4.6-3.2c-2.1,0-3.8,1.6-4.4,2.8v-2.3
	l-3.9,0v1.9h2v11h1.9v-7.7c0-0.9,1.1-4,4.1-4c1.4,0,3.4,1.3,3.4,4c0,1.4,0,7.8,0,7.8h1.9c0,0,0-7.6,0-7.8c0-0.9,0.9-4,4.1-4
	c1.4,0,3.4,1.2,3.4,3.9c0,1.4,0,7.9,0,7.9h3.9V23h-2L63.6,16.8z"/>
<path class="st1" d="M74.6,11.3c-3.8,0-6.9,3.1-6.9,7c0,0.1,0,0.6,0,0.7c0.3,3.5,3.3,6.3,7,6.3c2.7,0,5-1.5,6.2-3.7l-1.5-1
	c-0.9,1.7-2.7,2.8-4.7,2.8c-2.6,0-4.7-1.9-5.1-4.4l11.6,0c0-0.2,0-0.5,0-0.7C81.3,14.4,78.4,11.3,74.6,11.3z M69.7,17.1
	c0.5-2.3,2.5-3.9,4.9-3.9c2.4,0,4.1,1.7,4.7,3.9H69.7z"/>
<path class="st1" d="M127.8,11.9h-1.9l0,7.7c0,1.7-1.8,4.1-4.1,4.1c-1.4,0-3.4-1.4-3.4-3.9c0-1.4,0-7.9,0-7.9l-3.9,0v1.9h2v6.1
	c0,3.4,2.2,5.4,5,5.4c1.9,0,3.5-1.2,4.4-2.5v2l3.9,0v-1.9h-2L127.8,11.9z"/>
</svg>
