<?xml version="1.0" encoding="utf-8"?>
<!-- Generator: Adobe Illustrator 24.0.2, SVG Export Plug-In . SVG Version: 6.00 Build 0)  -->
<svg version="1.1" id="Слой_1" xmlns="http://www.w3.org/2000/svg" xmlns:xlink="http://www.w3.org/1999/xlink" x="0px" y="0px"
	 viewBox="0 0 1298.5 380.5" style="enable-background:new 0 0 1298.5 380.5;" xml:space="preserve">
<style type="text/css">
	.st0{fill:#3A4ABA;}
	.st1{fill:#6B6B6B;}
</style>
<title>fiat-transak</title>
<path class="st0" d="M372,11.3C365.6,4.1,356.5,0,346.9,0H33.5C15,0,0,15,0,33.5c0,0,0,0,0,0V347c0,18.5,15,33.5,33.5,33.5h313.4
	c18.5,0,33.5-15,33.5-33.5c0,0,0,0,0,0V33.5C380.4,25.3,377.4,17.4,372,11.3z M325,200.6c-6.5,6.5-17,6.5-23.4,0l-32.1-32.1V252
	c0.2,9.1-7,16.8-16.1,17s-16.8-7-17-16.1c0,0,0-0.1,0-0.1c0-0.3,0-0.5,0-0.8v-83.3l-95,95c-0.3,0.3-0.7,0.6-1,0.9
	c-0.1,0-0.1,0.1-0.2,0.1c-0.6,0.5-1.2,0.9-1.8,1.3l-0.4,0.2c-0.6,0.4-1.3,0.7-2,1l0,0c-0.5,0.2-1,0.4-1.5,0.5h-0.1
	c-0.5,0.1-0.9,0.3-1.4,0.4h-0.2c-0.4,0.1-0.8,0.1-1.3,0.2l-0.3,0c-0.4,0-0.9,0.1-1.4,0.1h-0.3c-0.5,0-1.1,0-1.6-0.1H128
	c-2.7-0.3-5.2-1.2-7.5-2.7l0,0c-0.5-0.3-0.9-0.6-1.3-1c-0.4-0.4-0.9-0.7-1.3-1.1l-62.6-62.3c-6.3-6.6-6.1-17.1,0.4-23.4
	c6.4-6.2,16.5-6.2,23,0l34.2,34.2v-83.6c-0.2-9.1,7-16.8,16.1-17c9.1-0.2,16.8,7,17,16.1c0,0,0,0.1,0,0.1c0,0.3,0,0.5,0,0.8V212
	l93.8-93.8c5.2-6.7,14.7-8.3,21.8-3.6l0.4,0.3c0.3,0.2,0.6,0.4,0.9,0.7s0.8,0.7,1.2,1.1l0.2,0.2l0.1,0.1l60.3,60.4
	C331.4,183.7,331.4,194.2,325,200.6z"/>
<polygon class="st1" points="460.4,140.1 509.5,140.1 509.5,268.4 539,268.4 539,140.1 588.1,140.1 588.1,112.6 460.4,112.6 "/>
<path class="st1" d="M652.6,151.3c-3.5,0.2-6.9,0.9-10.3,1.8c-3.2,0.9-6.3,2.3-9.2,4.1c-3.6,2.1-6.8,4.9-9.3,8.2
	c-1.2,1.6-2.3,3.3-3.3,5v-18.9h-26v116.9h29.7v-59.7c-0.1-4.1,0.5-8.2,1.8-12.1c2.3-7,7.5-12.6,14.2-15.6c3.7-1.7,7.6-2.7,11.6-3
	c3.8-0.4,7.6,0,11.3,1v-27.5C659.6,151.1,656.1,151,652.6,151.3z"/>
<path class="st1" d="M774.8,169.5c-3.8-7.6-10.3-13.4-18.2-16.5c-8-3.2-17.2-4.8-27.5-4.8c-14.1,0-25.2,3-33.3,9.1
	c-8,5.8-13.9,14.2-16.7,23.7l26.6,8.4c1.5-5,5.1-9,9.8-11.1c4.2-2,8.8-3.1,13.5-3.1c7.8,0,13.3,1.6,16.7,4.9c2.6,2.5,4.2,6.2,4.7,11
	l-14.1,2.1c-7.6,1.1-14.4,2.3-20.3,3.5c-5.3,1-10.4,2.4-15.5,4.2c-5.5,1.9-10.6,4.8-15,8.6c-3.6,3.2-6.4,7.3-8.1,11.9
	c-1.7,4.8-2.6,9.8-2.5,14.8c-0.1,6.2,1.5,12.4,4.5,17.8c3.1,5.5,7.7,9.9,13.2,12.9c5.8,3.2,12.9,4.8,21.3,4.8
	c10.1,0,18.4-1.8,25-5.3c5.7-3.2,10.7-7.4,14.8-12.4v14.4h25.8V197c0-5.3-0.2-10.2-0.7-14.5C778.4,177.9,777,173.5,774.8,169.5z
	 M747.4,232.9c-1.2,2.3-2.7,4.3-4.5,6.2c-2.5,2.7-5.5,4.9-8.9,6.6c-4.3,2-9,3-13.7,2.9c-3,0.1-6-0.4-8.8-1.5
	c-2.3-0.9-4.3-2.4-5.7-4.4c-1.4-2-2.1-4.4-2-6.9c0-1.8,0.4-3.7,1.2-5.3c1-1.7,2.3-3.3,3.9-4.4c2.2-1.6,4.5-2.8,7-3.7
	c2.9-1,5.8-1.9,8.8-2.6c3.3-0.8,7.7-1.7,13.1-2.6c3.5-0.6,7.6-1.4,12.5-2.2c-0.1,2.1-0.2,4.3-0.3,6.9
	C749.9,225.6,749,229.4,747.4,232.9L747.4,232.9z"/>
<path class="st1" d="M914.3,179.4c-1.4-5.3-3.8-10.3-6.9-14.9c-3.4-5-8.1-9-13.4-11.8c-5.8-3.1-13.2-4.6-22.4-4.6
	c-11.5,0-21,2.5-28.5,7.5c-3.5,2.3-6.6,5-9.4,8.1v-12.1h-26.2v116.9h29.9v-59.3c0-7.3,0.8-13.1,2.4-17.5c1.2-3.8,3.4-7.2,6.2-10
	c2.3-2.1,5.1-3.7,8.1-4.6c2.6-0.8,5.4-1.1,8.1-1.2c6.3,0,11.1,1.4,14.6,4.2c3.4,2.8,5.9,6.4,7.4,10.5c1.5,4,2.4,8.2,2.7,12.5
	c0.3,4.1,0.4,7.6,0.4,10.2v55.2h29.9v-65.6c0-1.9-0.1-5-0.4-9.3C916.4,188.7,915.6,184,914.3,179.4z"/>
<path class="st1" d="M1024.5,206.6c-5.4-3.1-12.5-5.8-21.4-8.1c-9.1-2.3-15.9-4.2-20.3-5.6c-4.4-1.4-7.3-2.9-8.8-4.2
	c-1.4-1.3-2.2-3.2-2.1-5.1c0-3.4,1.6-6,4.9-7.8c3.3-1.8,7.6-2.5,13-2.2c5.5,0.4,10,1.9,13.2,4.4c3.2,2.5,5.3,6.2,5.6,10.3l30.1-5.4
	c-0.9-6.8-3.7-13.2-8.1-18.4c-4.6-5.4-10.5-9.5-17.2-12c-7.8-2.9-16-4.4-24.3-4.2c-9.5,0-17.7,1.5-24.6,4.5
	c-6.5,2.6-12.1,7.1-16.1,12.8c-3.9,5.8-5.9,12.6-5.7,19.5c-0.2,5.4,1.1,10.7,3.8,15.3c2.5,4.2,6.6,7.8,12.3,10.9s13.3,5.8,22.8,8.2
	c8.4,2.2,14.7,4,18.7,5.4c4,1.4,6.6,2.8,7.7,4.2c1.2,1.6,1.8,3.6,1.7,5.6c0.1,3.4-1.5,6.7-4.3,8.6c-2.9,2-7,3.1-12.3,3.1
	c-6.5,0-11.8-1.5-16.1-4.6c-4.2-3.1-7.1-7.7-8.2-12.9l-30.1,4.5c1.9,12.2,7.4,21.6,16.5,28.3s20.9,10,35.7,10
	c15.3,0,27.3-3.4,35.9-10.3c8.7-6.9,13-16.3,13-28.3c0.2-5.4-1.1-10.8-3.7-15.5C1033.8,213.3,1029.9,209.6,1024.5,206.6z"/>
<path class="st1" d="M1157,169.5c-3.8-7.6-10.3-13.4-18.2-16.5c-8-3.2-17.2-4.8-27.5-4.8c-14.1,0-25.2,3-33.3,9.1
	c-8,5.8-13.9,14.2-16.7,23.7l26.6,8.4c1.9-5.3,5.2-9,9.8-11.1c4.2-2,8.8-3.1,13.5-3.1c7.8,0,13.3,1.6,16.7,4.9
	c2.6,2.5,4.2,6.2,4.7,11l-14.2,2.1c-7.6,1.1-14.4,2.3-20.3,3.5c-5.3,1-10.4,2.4-15.5,4.2c-5.5,1.9-10.6,4.8-15,8.6
	c-3.6,3.2-6.4,7.3-8.1,11.9c-1.7,4.8-2.6,9.8-2.5,14.8c-0.1,6.2,1.5,12.4,4.5,17.8c3.1,5.5,7.7,9.9,13.2,12.9
	c5.8,3.2,12.9,4.8,21.3,4.8c10.1,0,18.4-1.8,25-5.3c5.7-3.2,10.7-7.4,14.8-12.4v14.4h25.8V197c0-4.8-0.2-9.7-0.7-14.5
	C1160.5,177.9,1159.2,173.5,1157,169.5z M1129.5,232.9c-1.2,2.3-2.7,4.3-4.5,6.2c-2.5,2.7-5.5,4.9-8.9,6.6c-4.3,2-9,3-13.7,2.9
	c-3,0.1-6-0.4-8.8-1.5c-2.3-0.9-4.3-2.4-5.7-4.4c-1.4-2-2.1-4.4-2-6.9c0-1.8,0.4-3.7,1.2-5.3c1-1.7,2.3-3.2,3.9-4.4
	c2.2-1.6,4.5-2.8,7-3.7c2.9-1,5.8-1.9,8.8-2.6c3.3-0.8,7.7-1.7,13.1-2.6c3.5-0.6,7.6-1.3,12.5-2.2c-0.1,2.1-0.2,4.3-0.3,6.9
	C1132,225.7,1131.1,229.4,1129.5,232.9L1129.5,232.9z"/>
<polygon class="st1" points="1253.5,210 1295.7,151.5 1259.3,151.5 1219.7,207.8 1219.7,112.6 1189.9,112.6 1189.7,268.4 
	1219.7,268.4 1219.7,212.1 1260.2,268.4 1298.5,268.4 "/>
</svg>
