<svg xmlns="http://www.w3.org/2000/svg" viewBox="0 0 729.33 155.08">
  <title>fiat-exhub_1</title>
  <g>
    <path d="M424.68,75.32c0-15.66.08-31.31-.07-47,0-3.24.84-4.43,4.2-4.27,5.32.25,10.67.26,16,0,3.26-.16,3.86,1.12,3.82,4-.15,10.66.07,21.32-.14,32-.06,3.4.76,4.6,4.37,4.53q19.25-.32,38.49,0c3.35,0,4.17-1,4.11-4.23-.2-10.65.09-21.31-.16-32-.08-3.61,1.09-4.52,4.51-4.34,5.31.28,10.66.16,16,0,2.39-.05,3.59.33,3.58,3.2q-.15,48,0,95.92c0,2.78-1.12,3.35-3.56,3.3-5.66-.11-11.34-.21-17,0-3.11.13-3.49-1.24-3.47-3.84.11-11.32-.06-22.65.12-34,.05-3.18-.71-4.24-4.08-4.19-13,.2-26,.17-39,0-3.09,0-3.95.92-3.9,4,.17,11.15-.05,22.31.14,33.47.05,3.34-.67,4.78-4.35,4.56a137.83,137.83,0,0,0-15.48,0c-3.38.17-4.2-1.09-4.17-4.29C424.76,106.62,424.68,91,424.68,75.32Z" fill="#4e7096"/>
    <path d="M239.44,75.34c0-15.47.1-30.95-.07-46.43,0-3.49.53-4.93,4.54-4.9q34.47.31,68.93,0c3.93,0,5,1.25,4.55,4.84-.53,4.57,2,10.49-1,13.42-2.76,2.69-8.58.75-13,.79-11.82.1-23.64.13-35.46,0-3.3,0-4.88.61-4.64,4.33a106.76,106.76,0,0,1,0,14c-.22,3.44,1.14,4.2,4.29,4.17,12.49-.14,25,.2,37.46-.18,5-.15,6.47,1.51,5.9,6.19a42.81,42.81,0,0,0,0,8.47c.26,3.15-1,3.92-4,3.89-13-.14-26,.09-39-.15-3.76-.07-4.93,1-4.68,4.71a122.57,122.57,0,0,1,0,15c-.19,3.37,1,4.23,4.24,4.2,15.65-.14,31.3.08,47-.16,4-.06,5.34,1.17,4.9,5-.49,4.42,1.83,10.08-.95,13s-8.54,1-13,1c-19.82.13-39.63.09-59.44,0-7.55,0-6.46.92-6.49-6.74C239.4,105,239.44,90.16,239.44,75.34Z" fill="#fe7540"/>
    <path d="M600,117.16c-10.51,10-22.07,12-34.81,9.11-13.52-3.07-21-12-22.78-25.19-2.24-16.87-.55-33.93-1-50.9-.06-2.7,1.71-2.33,3.35-2.33,5.16,0,10.34.19,15.49-.07,3.22-.17,4.22.75,4.16,4.08-.22,11.15-.1,22.31-.07,33.47a52.37,52.37,0,0,0,.27,7c1.44,11,6.38,15.66,16.32,15.49s16.39-6.19,17.34-16.32c1.1-11.63.36-23.3.49-34.95.1-8.68,0-8.69,8.48-8.69,3.66,0,7.34.16,11-.05,2.65-.15,3.36.79,3.35,3.38q-.12,36,0,71.94c0,2.6-.82,3.53-3.44,3.43a106.22,106.22,0,0,0-13,0c-4.1.34-5.9-.93-5.22-5.15A34.64,34.64,0,0,0,600,117.16Z" fill="#4e7096"/>
    <path d="M326.91,47.85c8.14,0,15.29.12,22.43-.07,2.59-.07,3.88,1.21,5.2,3.06,4.17,5.81,8.51,11.49,12.63,17.34,1.44,2.06,2.27,2.31,3.86.11,4.28-5.93,8.83-11.66,13.12-17.58A6.28,6.28,0,0,1,390,47.78c6.6.19,13.2.06,20.77.06-7.13,9.36-13.75,18-20.33,26.67-2.91,3.84-7.6,7.5-8.1,11.65-.48,4,4.8,7.46,7.56,11.15,7.05,9.44,14.23,18.8,22.07,29.13-8.91,0-16.92.07-24.93,0-1.89,0-2.56-2-3.51-3.29-4.42-6-8.83-12.08-13.05-18.25-1.54-2.26-2.32-2.06-3.82,0-4.47,6.21-9.23,12.21-13.66,18.44-1.6,2.25-3.25,3.39-6.13,3.3-6.61-.2-13.24-.06-20.48-.06,2-4.66,5.21-7.72,7.82-11.18,6.31-8.35,12.59-16.73,19.16-24.87,2.19-2.71,2.31-4.46.12-7.26-8.29-10.61-16.29-21.45-24.39-32.2C328.49,50.27,328,49.46,326.91,47.85Z" fill="#fe7540"/>
    <rect width="186.73" height="155.08" rx="31" fill="#fe7540"/>
    <path d="M17.73,80c0-13.8.09-27.61-.06-41.4,0-3.12.47-4.4,4-4.37q30.72.27,61.46,0c3.5,0,4.42,1.12,4,4.32-.47,4.08,1.76,9.35-.93,12-2.46,2.39-7.64.67-11.62.7-10.54.09-21.08.12-31.62,0-2.94,0-4.35.54-4.13,3.86a97.74,97.74,0,0,1,0,12.46c-.2,3.07,1,3.75,3.82,3.72,11.13-.13,22.27.17,33.4-.16,4.46-.14,5.77,1.34,5.26,5.52a37.35,37.35,0,0,0,0,7.55c.23,2.81-.92,3.49-3.57,3.47-11.58-.13-23.16.08-34.73-.14-3.36-.06-4.4.86-4.18,4.21a110,110,0,0,1,0,13.34c-.17,3,.91,3.77,3.78,3.75,13.95-.12,27.91.07,41.86-.14,3.59-.06,4.76,1,4.37,4.5-.44,3.94,1.64,9-.85,11.59s-7.61.85-11.56.87c-17.67.11-35.33.08-53,0-6.72,0-5.76.81-5.78-6C17.7,106.37,17.73,93.16,17.73,80Z" fill="#fff"/>
    <path d="M95.72,55.44c7.26,0,13.63.11,20-.06,2.31-.06,3.46,1.08,4.64,2.73,3.71,5.18,7.58,10.25,11.25,15.46,1.29,1.83,2,2.06,3.45.09,3.81-5.28,7.87-10.39,11.7-15.67a5.6,5.6,0,0,1,5.18-2.61c5.88.17,11.77.06,18.52.06-6.37,8.34-12.26,16-18.13,23.78-2.6,3.42-6.78,6.68-7.22,10.39-.43,3.51,4.28,6.64,6.74,9.93,6.29,8.42,12.68,16.76,19.68,26-7.95,0-15.09,0-22.23,0-1.69,0-2.29-1.78-3.13-2.93-3.94-5.38-7.88-10.77-11.64-16.28-1.38-2-2.07-1.83-3.4,0-4,5.53-8.23,10.88-12.19,16.44-1.42,2-2.89,3-5.46,2.94-5.9-.18-11.81-.06-18.26-.06,1.75-4.15,4.64-6.88,7-10,5.63-7.44,11.23-14.91,17.09-22.17,2-2.41,2-4,.1-6.47C112,77.53,104.86,67.87,97.64,58.28,97.13,57.6,96.69,56.88,95.72,55.44Z" fill="#fff"/>
    <path d="M720.18,60.29c-13.66-15.72-33.31-17.66-54.16-5V50.19c0-9.32-.11-18.64.07-27.95.06-3.14-.67-4.5-4.12-4.28a100.2,100.2,0,0,1-14,0c-4-.32-5,1.1-4.93,5,.16,30.28,0,60.56.13,90.85,0,4.09-1.85,9.42.85,12s7.94.67,12.06.73c8.31.12,8.32,0,9.43-8.5,7.89,8.1,17.52,10.14,28,9.4,10.8-.76,19.91-5.15,26.81-13.5C732.44,99.19,732.27,74.19,720.18,60.29ZM685.74,108.8c-12.06-.08-20.28-9-20-21.84.23-13.09,8.31-21.52,20.51-21.41,11.69.1,20,9.08,19.92,21.57C706.07,100,697.67,108.88,685.74,108.8Z" fill="#4e7096"/>
  </g>
</svg>
