<?xml version="1.0" encoding="utf-8"?>
<!-- Generator: Adobe Illustrator 26.4.1, SVG Export Plug-In . SVG Version: 6.00 Build 0)  -->
<svg version="1.1" id="webvrLogo" xmlns="http://www.w3.org/2000/svg" xmlns:xlink="http://www.w3.org/1999/xlink" x="0px" y="0px"
	 viewBox="0 0 188 40" style="enable-background:new 0 0 188 40;" xml:space="preserve">
<style type="text/css">
	.st0{fill:#6B6B6B;}
	.st1{fill:#4DD7CF;}
	.st2{fill-rule:evenodd;clip-rule:evenodd;fill:#6B6B6B;}
</style>
<g id="white">
	<path class="st0" d="M53.8,7.3v25.2H60V25h3.5c11.8,0,11.8-17.7,0-17.7H53.8z M60,19.2v-5.9h3.5c3.8,0,3.8,5.9,0,5.9H60z"/>
	<path class="st0" d="M89.4,32.5h6.9L85.9,7h-4.4L71.4,32.5H78l1.4-3.7H88L89.4,32.5z M83.7,17.2l1.9,5.5l0.1,0.4h-4.2l0.2-0.6
		L83.7,17.2z"/>
	<path class="st0" d="M118.1,7.3h-6.8L109,11l-3,5.5l-2.8-5.1l-2.5-4h-6.8v0.6l9,14.5v10.2h6.2V22.3l9-14.4V7.3z"/>
</g>
<path class="st1" d="M138.9,17.1c-0.9-3.6-3.8-4.6-6.1-4.6c-3.7,0-6.5,2.9-6.5,7c0,4.3,2.8,7.1,6.5,7.1c1.2,0,2.6-0.3,3.7-1.1
	c-0.2,0-0.3,0-0.5,0c-1.3,0-2.6-0.5-3.5-1.5c-0.9-0.9-1.5-2.2-1.5-3.5h14.4c-0.2,1.8-0.5,3.1-0.9,3.9c-1.8,4.8-7.1,8-11.8,8
	c-7.3,0-12.7-5.4-12.7-13c0-7.6,5.6-13,12.7-13c4.9,0,11.6,2.7,12.6,10.6H138.9z"/>
<path class="st1" d="M165.2,22.9H155v3.7h10.4v5.9h-16.6V7.3h16.6v5.9H155v3.7h10.2V22.9z"/>
<path class="st1" d="M180.7,13.1v19.4h-6.2V13.1h-6.8V7.3h19.7v5.8H180.7z"/>
<path id="RLogo" class="st2" d="M37.9,17.4h4.6L33.4,26l-9.1-8.5h4.4C27.2,11.4,21.9,7,15.6,7c-3.1,0-5.9,1-8.2,2.8
	c3.1-4.4,8.1-7.2,13.8-7.2C29.7,2.5,36.8,9,37.9,17.4z M9.1,13.6l4.6,4.3l4.6,4.3h-4.4c1.5,6,6.8,10.4,13.2,10.4
	c3.1,0,5.9-1,8.2-2.8C32,34.1,27,37,21.3,37c-8.6,0-15.6-6.5-16.7-14.9H0l4.6-4.3L9.1,13.6z"/>
</svg>
