<?xml version="1.0" encoding="utf-8"?>
<!-- Generator: Adobe Illustrator 26.4.1, SVG Export Plug-In . SVG Version: 6.00 Build 0)  -->
<svg version="1.1" id="Слой_1" xmlns="http://www.w3.org/2000/svg" xmlns:xlink="http://www.w3.org/1999/xlink" x="0px" y="0px"
	 viewBox="0 0 185 36" style="enable-background:new 0 0 185 36;" xml:space="preserve">
<style type="text/css">
	.st0{fill:#6B6B6B;}
	.st1{fill:none;stroke:#F55151;stroke-width:5;}
	.st2{fill:none;stroke:#F55151;stroke-width:3;}
</style>
<path class="st0" d="M40.8,17.6c0-5.9,7.8-6.3,9-1.4H54c-0.5-4.3-4.2-7.2-8.6-7.2c-4.8,0-8.7,3.7-8.7,8.7s3.9,8.6,8.7,8.6
	c4.4,0,8-2.9,8.6-7.3h-4.2C48.7,23.9,40.8,23.5,40.8,17.6z M64.9,20.3l3.5,5.7h4.4v-0.8l-3.6-5.3c5.2-2.5,4.2-10.7-2.5-10.7h-6.5V26
	h4.1v-5.7H64.9z M64.3,13.1h2.4c2.5,0,2.5,3.5,0,3.5h-2.4V13.1z M93.7,9.2h-4.5l-1.5,2.5l-2,3.6l-1.9-3.4L82,9.2h-4.5v0.4l6,9.6V26
	h4.1v-6.8l6-9.6V9.2z M99.3,9.2V26h4.1v-5h2.3c7.8,0,7.9-11.8,0-11.8H99.3z M103.4,17.1v-4h2.3c2.5,0,2.5,4,0,4H103.4z M130.4,14.5
	c0-3.9-3.2-5.5-6.2-5.5c-3.6,0-6.6,2.2-6.4,5.9v0c0.3,3.9,3.5,4.4,6.2,4.7c0.6,0.1,2.5,0.2,2.5,1.4c0,1-1.1,1.3-2.4,1.3
	c-0.9,0-2.3-0.3-2.3-2h-4.2c0,4.3,3.7,6,6.5,6c3.2,0,6.6-1.7,6.6-5.5c0-3.5-2.8-4.6-6.2-5c-0.6,0-2.5-0.2-2.5-1.4
	c0-0.9,0.9-1.5,2.2-1.5c1.3,0,2.2,0.6,2.2,1.7H130.4z M144.8,26V13h4.5V9.2h-13.2V13h4.5v13H144.8z M158.8,19.6h6.9v-4h-6.9v-2.4h7
	v-4h-11.1V26h11.1v-4h-7.1V19.6z M176.8,20.3l3.5,5.7h4.4v-0.8l-3.6-5.3c5.2-2.5,4.2-10.7-2.5-10.7h-6.5V26h4.1v-5.7H176.8z
	 M176.2,13.1h2.4c2.5,0,2.5,3.5,0,3.5h-2.4V13.1z"/>
<path class="st1" d="M25.4,25.4c-1.5,1.5-3.3,2.5-5.4,2.9c-2,0.4-4.1,0.2-6.1-0.6c-1.9-0.8-3.6-2.1-4.7-3.9
	c-1.2-1.7-1.8-3.8-1.8-5.8s0.6-4.1,1.8-5.8c1.2-1.7,2.8-3.1,4.7-3.9c1.9-0.8,4-1,6.1-0.6c2,0.4,3.9,1.4,5.4,2.9"/>
<path class="st2" d="M21.5,17.8c0,0.7-0.2,1.4-0.6,1.9c-0.4,0.6-0.9,1-1.6,1.3c-0.6,0.3-1.3,0.3-2,0.2c-0.7-0.1-1.3-0.5-1.8-0.9
	c-0.5-0.5-0.8-1.1-0.9-1.8c-0.1-0.7-0.1-1.4,0.2-2c0.3-0.6,0.7-1.2,1.3-1.6c0.6-0.4,1.2-0.6,1.9-0.6"/>
</svg>
