<?xml version="1.0" encoding="utf-8"?>
<!-- Generator: Adobe Illustrator 24.0.2, SVG Export Plug-In . SVG Version: 6.00 Build 0)  -->
<svg version="1.1" id="Слой_1" xmlns="http://www.w3.org/2000/svg" xmlns:xlink="http://www.w3.org/1999/xlink" x="0px" y="0px"
	 viewBox="0 0 186.1 186.1" style="enable-background:new 0 0 186.1 186.1;" xml:space="preserve">
<style type="text/css">
	.st0{fill:#FF7733;}
	.st1{fill:#ECECEC;}
</style>
<title>Ресурс 13</title>
<circle class="st0" cx="93.1" cy="93.1" r="93.1"/>
<circle class="st1" cx="93.1" cy="93.1" r="85.2"/>
<path class="st0" d="M108.6,177c-32.3,5.6-59-4.5-80.6-28.7c-2-2.2-3.6-4.8-5.3-7.2c-0.4-1.6-0.1-3.3,0.6-4.9
	c5.7-14.9,6.9-30.7,8.1-46.4c0.8-9.7,1.8-19.4,8.4-27.1c12.5-14.4,28.7-20.3,47.6-18.5c2.6,0.2,5.3,0.7,7.9,1.1
	c7.3,2.5,14.8,4.6,21.9,7.7c9.4,4.8,19.6,7,29.4,10.8c3.6,1.3,6.9,3.3,9.8,5.7c8.6,7.3,9.3,18.1,1.7,26.8c-1.6,0.8-3.1,1.7-3.1,3.8
	c-2.4,4.1-6.1,7-9.4,10.2c-8.3,8.2-16.5,16.4-23.1,26.1c-8,11.7-14.1,24.1-13.2,38.8C109.5,176,109.2,176.7,108.6,177z"/>
<path class="st1" d="M81,55c9.1-0.1,16.6,7.1,16.7,16.2c0,0,0,0,0,0.1c0,9.3-7.5,16.8-16.7,16.8c0,0,0,0-0.1,0
	c-9.1,0-16.4-7.4-16.3-16.5c0-0.1,0-0.1,0-0.2c-0.1-9,7-16.3,16-16.4C80.7,55,80.8,55,81,55z"/>
<path class="st0" d="M95.8,46.3c10.8-2.4,17-0.2,21.2,7.8C110,51.4,102.6,49.6,95.8,46.3z"/>
<path class="st1" d="M156.9,96.9c-4.7,1.8-12.7,7.2-24.1,10.4c-13,3.6-23.7,4.5-38.2-0.8c7.8,7.3,16.8,7,22.9,6.6
	C118.3,113.1,141.4,109.5,156.9,96.9z"/>
<path class="st1" d="M144,87.8c0,2.2-1.1,3.6-3.1,3.8c-1.9,0.2-3.6-1.1-3.8-3c0-0.2,0-0.4,0-0.6c-0.1-2.2,1.5-3.4,3.4-3.5
	S143.7,85.8,144,87.8z"/>
<path class="st0" d="M81,60c6.4,0,11.7,5.2,11.7,11.6c0,6.4-5.2,11.7-11.6,11.7c-6.4,0-11.7-5.2-11.7-11.6c0,0,0,0,0,0
	C69.4,65.2,74.5,60,81,60C81,60,81,60,81,60z"/>
</svg>
