<svg xmlns="http://www.w3.org/2000/svg" viewBox="0 0 186.15 186.15"><defs><style>.a{fill:#ebe7db;}.b{fill:#161619;}.c{fill:#ebe7db;}.d{fill:#ebe7db;}</style></defs><title>Ресурс 13</title><circle class="a" cx="93.07" cy="93.07" r="93.07"/><circle class="b" cx="93.07" cy="93.07" r="85.16"/><path class="c" d="M108.56,177C76.3,182.58,49.6,172.5,28,148.3c-2-2.21-3.56-4.79-5.33-7.19a7.46,7.46,0,0,1,.6-4.85c5.66-14.95,6.91-30.69,8.14-46.41.77-9.7,1.77-19.44,8.44-27.1,12.54-14.42,28.67-20.3,47.61-18.54,2.63.24,5.26.73,7.89,1.1,7.31,2.5,14.77,4.64,21.87,7.74,9.37,4.75,19.64,7,29.37,10.77a33.13,33.13,0,0,1,9.83,5.74c8.6,7.35,9.29,18.11,1.74,26.82-1.62.77-3.08,1.67-3.07,3.79-2.36,4.12-6.12,7-9.4,10.23-8.27,8.2-16.52,16.41-23.11,26.08-8,11.72-14.06,24.11-13.17,38.85A1.71,1.71,0,0,1,108.56,177Z"/><path class="b" d="M81,55a16.48,16.48,0,0,1,16.71,16.3,16.77,16.77,0,0,1-16.8,16.8A16.41,16.41,0,0,1,64.57,71.44,16.21,16.21,0,0,1,81,55Z"/><path class="d" d="M95.79,46.28c10.81-2.42,17-.15,21.22,7.81C110,51.42,102.6,49.6,95.79,46.28Z"/><path class="b" d="M156.87,96.9c-4.69,1.81-12.67,7.24-24.08,10.38-13,3.57-23.68,4.5-38.19-.77,7.78,7.35,16.78,7,22.86,6.61C118.26,113.07,141.35,109.46,156.87,96.9Z"/><path class="b" d="M144,87.82c0,2.17-1.11,3.64-3.15,3.78A3.43,3.43,0,0,1,137,88c-.09-2.18,1.51-3.37,3.44-3.48S143.7,85.78,144,87.82Z"/><path class="a" d="M81,60A11.65,11.65,0,1,1,69.39,71.64,11.59,11.59,0,0,1,81,60Z"/></svg>