<svg xmlns="http://www.w3.org/2000/svg" viewBox="0 0 383.16 269.44">
  <title>mail</title>
  <g>
    <path d="M0,28.46c.72-2.07,1.53-4.12,2.15-6.22.79-2.67,1.49-3.47,3.92-1C17.66,33.13,29.44,44.81,41.15,56.55Q78.79,94.31,116.47,132c2.19,2.19,2.22,3.22,0,5.43q-55,55-109.93,110.14c-3.14,3.15-3.08,3.13-4.66-1.07C1.2,244.67,1.22,242.61,0,241Z" fill="#ebe7db"/>
    <path d="M363.75,3.38c-5.83,5.71-11.39,11-16.83,16.5q-72.53,72.69-145,145.42c-6.58,6.6-14.07,6.61-20.62,0L22.31,5.87c-.78-.78-1.52-1.61-2.4-2.56A28.38,28.38,0,0,1,31.81.1C33.17,0,34.55,0,35.92,0Q191.53,0,347.15,0A37.55,37.55,0,0,1,363.75,3.38Z" fill="#ebe7db"/>
    <path d="M19.24,266c10.49-10.3,20.6-20.09,30.56-30q41.27-41.27,82.37-82.69c2.18-2.2,3.24-2.28,5.43,0,8.91,9.25,18.08,18.25,27.12,27.37,16.24,16.36,37.53,16.31,53.83-.12,9.23-9.3,18.53-18.52,27.68-27.88,1.62-1.65,2.43-1.64,4.06,0Q306.08,208.71,362,264.7a17.85,17.85,0,0,1,1.25,1.54,31.1,31.1,0,0,1-13.87,3.16q-13.28,0-26.56,0-143.28,0-286.56,0A38,38,0,0,1,19.24,266Z" fill="#ebe7db"/>
    <path d="M383.13,134.82q0,49.74,0,99.48a40.44,40.44,0,0,1-2.38,13.53c-.84,2.38-1.59,2.43-3.38.61-11.9-12.07-23.91-24-35.88-36q-37.36-37.49-74.77-74.91c-2.11-2.11-2.42-3.14-.12-5.44q55-55,109.9-110.12c3.18-3.19,3.17-3.18,4.65.94a36.18,36.18,0,0,1,2,12.47Q383.09,85.08,383.13,134.82Z" fill="#ebe7db"/>
  </g>
</svg>
