<svg xmlns="http://www.w3.org/2000/svg" viewBox="0 0 300 299.99"><title>Triton</title><path d="M149.62,300C65.84,300-.11,233.23,0,148.34.11,66.11,69-1.32,152.35,0c82,1.31,148.9,69.64,147.63,153.3C298.77,233.67,231.79,300,149.62,300Zm14-113.25c14.69-14.06,19.62-14.32,33.34-4.09a100.72,100.72,0,0,0,21.68,12.59c8.76,3.58,18.31,5,27-.89,6.2-4.23,8.08-12.76,5.2-20.85-4.09-11.47-11.88-17.91-21.5-17.24-7.86.54-15.7,2.35-23.54,2.27-11.54-.12-20.71-8.52-23-19.61-1.66-8,1.86-11.78,14.9-18.22,9.65-4.77,19.57-9.57,28-16.12,8.59-6.68,9.19-19,3.28-25.81-8-9.31-21.82-11.22-30.52-3.08-4.69,4.39-7.81,10.62-11,16.37-2.48,4.47-3.55,9.72-6,14.2-4,7.22-14,10.87-21.08,8.32-8.58-3.07-12.44-9.52-10.85-19.31,1.06-6.53,2.89-12.94,4.37-19.4,3.08-13.41-3.44-26.52-15.33-28.78-14.28-2.72-29.47,1.95-32.68,16.8-2,9,2.58,16.75,7.87,23.74,4.2,5.55,9.16,10.56,13.1,16.28,6.65,9.68,3.87,19.38-6.64,23.76-7.35,3.06-14.57,2-21.25-2.28-7.27-4.67-14.18-10-21.81-14-6.33-3.31-13.39-3.72-19.53,1.38-7.24,6-9,20.45-3.66,29.37,4.86,8.1,15.08,11.33,24.7,7.72,2.77-1,5.43-2.41,8.23-3.38,16-5.53,28.4-1.19,32.15,11.3,7,23.44-37.94,96-54.07,116.24" style="fill:#ebe7db"/></svg>