<?xml version="1.0" encoding="utf-8"?>
<!-- Generator: Adobe Illustrator 24.0.2, SVG Export Plug-In . SVG Version: 6.00 Build 0)  -->
<svg version="1.1" id="Слой_1" xmlns="http://www.w3.org/2000/svg" xmlns:xlink="http://www.w3.org/1999/xlink" x="0px" y="0px"
	 viewBox="0 0 300 300" style="enable-background:new 0 0 300 300;" xml:space="preserve">
<style type="text/css">
	.st0{fill:#FF7733;}
</style>
<title>Triton</title>
<path class="st0" d="M149.6,300C65.8,300-0.1,233.2,0,148.3C0.1,66.1,69-1.3,152.4,0c82,1.3,148.9,69.6,147.6,153.3
	C298.8,233.7,231.8,300,149.6,300z M163.6,186.8c14.7-14.1,19.6-14.3,33.3-4.1c6.7,5.1,14,9.3,21.7,12.6c8.8,3.6,18.3,5,27-0.9
	c6.2-4.2,8.1-12.8,5.2-20.9c-4.1-11.5-11.9-17.9-21.5-17.2c-7.9,0.5-15.7,2.4-23.5,2.3c-11.5-0.1-20.7-8.5-23-19.6
	c-1.7-8,1.9-11.8,14.9-18.2c9.6-4.8,19.6-9.6,28-16.1c8.6-6.7,9.2-19,3.3-25.8c-8-9.3-21.8-11.2-30.5-3.1c-4.7,4.4-7.8,10.6-11,16.4
	c-2.5,4.5-3.6,9.7-6,14.2c-4,7.2-14,10.9-21.1,8.3c-8.6-3.1-12.4-9.5-10.9-19.3c1.1-6.5,2.9-12.9,4.4-19.4
	c3.1-13.4-3.4-26.5-15.3-28.8c-14.3-2.7-29.5,2-32.7,16.8c-2,9,2.6,16.8,7.9,23.7c4.2,5.6,9.2,10.6,13.1,16.3
	c6.7,9.7,3.9,19.4-6.6,23.8c-7.3,3.1-14.6,2-21.3-2.3c-7.3-4.7-14.2-10-21.8-14c-6.3-3.3-13.4-3.7-19.5,1.4c-7.2,6-9,20.5-3.7,29.4
	c4.9,8.1,15.1,11.3,24.7,7.7c2.8-1,5.4-2.4,8.2-3.4c16-5.5,28.4-1.2,32.2,11.3c7,23.4-37.9,96-54.1,116.2"/>
</svg>
