<svg xmlns="http://www.w3.org/2000/svg" viewBox="0 0 756.99 533.33">
  <title>youtube</title>
  <g>
    <path d="M741.17,83.28a95.1,95.1,0,0,0-66.92-67.36C615.21,0,378.49,0,378.49,0S141.78,0,82.75,15.92A95.09,95.09,0,0,0,15.82,83.28C0,142.7,0,266.67,0,266.67s0,124,15.82,183.39a95.08,95.08,0,0,0,66.93,67.35c59,15.92,295.74,15.92,295.74,15.92s236.72,0,295.76-15.92a95.1,95.1,0,0,0,66.92-67.35C757,390.63,757,266.67,757,266.67s0-124-15.82-183.39" fill="#ebe7db"/>
    <path d="M301.07,379.22,498.93,266.67,301.07,154.11Z" fill="#161619"/>
  </g>
</svg>
