<?xml version="1.0" encoding="utf-8"?>
<!-- Generator: Adobe Illustrator 24.0.2, SVG Export Plug-In . SVG Version: 6.00 Build 0)  -->
<svg version="1.1" id="Слой_1" xmlns="http://www.w3.org/2000/svg" xmlns:xlink="http://www.w3.org/1999/xlink" x="0px" y="0px"
	 viewBox="0 0 96 96" style="enable-background:new 0 0 96 96;" xml:space="preserve">
<style type="text/css">
	.st0{fill:#FF4600;}
	.st1{fill:#FE4600;}
</style>
<circle class="st0" cx="48" cy="48" r="48"/>
<path d="M6.9,43.8c0.4-8.8,4.9-18.8,13.9-26.8c7.9-7,17.2-10.4,27.7-10.2c12.1,0.2,22.3,4.9,30.3,14c6.9,7.8,10.4,17.1,10.3,27.6
	C89,60.5,84.3,70.8,75.2,78.9c-7.8,7-17.1,10.4-27.6,10.3C36.2,89,26.4,84.8,18.4,76.6C9.7,67.7,6.6,56.6,6.9,43.8z"/>
<path class="st1" d="M48,55c-8,0-16,0-24,0c-0.4,0-0.6-0.1-0.9-0.5c-2.4-4.3-4.9-8.6-7.3-13c-0.5-0.9-1.1-1.9-1.6-2.8
	c-0.1-0.2-0.1-0.4,0.1-0.6c1-0.9,1.9-1.9,2.9-2.8c2.3-2.3,4.7-4.5,7-6.8c1-0.9,1.9-1.9,2.9-2.8c0.2-0.2,0.3-0.2,0.5,0
	c0.6,0.7,1.2,1.4,1.9,2.1c0.2,0.2,0.2,0.3,0,0.5c-1.8,3.1-3.6,6.2-5.5,9.3c-0.3,0.5-0.6,1.1-1,1.6c-0.1,0.2-0.1,0.3,0,0.4
	c1.4,2.5,2.7,5,4.1,7.5c0.1,0.3,0.4,0.3,0.6,0.3c2.8,0,5.6,0,8.4,0c10.6,0,21.2,0,31.8,0c0.4,0,0.6-0.1,0.8-0.4
	c1.3-2.5,2.7-4.9,4.1-7.4c0.1-0.3,0.1-0.4,0-0.6c-2.1-3.6-4.1-7.2-6.2-10.7c-0.2-0.3-0.2-0.5,0.1-0.7c0.6-0.7,1.1-1.4,1.7-2.1
	c0.2-0.2,0.3-0.2,0.5,0c2.6,2.5,5.2,5,7.8,7.6c1.6,1.6,3.2,3.1,4.9,4.7c0.3,0.3,0.4,0.6,0.2,1c-2.7,4.8-5.4,9.6-8.1,14.4
	c-0.2,0.4-0.5,0.8-0.7,1.3c-0.1,0.3-0.3,0.3-0.6,0.3c-1.3,0-2.6,0-3.9,0C61.5,55,54.8,55,48,55z"/>
<path class="st1" d="M63.8,59.2c-0.7,1.3-1.3,2.6-1.9,3.8c-1.7,3.5-3.5,7-5.2,10.6c-0.2,0.4-0.4,0.5-0.8,0.5c-5.3,0-10.7,0-16,0
	c-0.4,0-0.6-0.1-0.7-0.4c-2.3-4.7-4.6-9.4-7-14.1c-0.1-0.3-0.1-0.4,0.2-0.4c2.5,0,5.1,0,7.7,0c0.3,0,0.4,0.1,0.5,0.4
	c1.2,2.3,2.4,4.7,3.6,7c0.2,0.3,0.3,0.4,0.7,0.4c2,0,4.1,0,6.1,0c0.3,0,0.5-0.1,0.6-0.4c1.2-2.4,2.4-4.7,3.6-7.1
	c0.1-0.2,0.2-0.3,0.5-0.3C58.3,59.2,61,59.2,63.8,59.2z"/>
</svg>
