<svg xmlns="http://www.w3.org/2000/svg" viewBox="0 0 29.51 29.51">
  <title>turex-light</title>
  <g>
    <path d="M14.75,0A14.76,14.76,0,1,0,29.51,14.75,14.76,14.76,0,0,0,14.75,0Zm8.36,24.25a12.13,12.13,0,0,1-8.48,3.17,12.44,12.44,0,0,1-9-3.88C3,20.81,2,17.4,2.12,13.46A12.09,12.09,0,0,1,6.39,5.22a12.13,12.13,0,0,1,8.52-3.13,12.22,12.22,0,0,1,9.31,4.3,12.26,12.26,0,0,1,3.16,8.49A12.25,12.25,0,0,1,23.11,24.25Z" fill="#fff"/>
    <path d="M14.75,16.9H7.38a.29.29,0,0,1-.28-.15c-.74-1.32-1.51-2.64-2.24-4l-.5-.86a.13.13,0,0,1,0-.18c.3-.28.58-.58.89-.86.7-.71,1.44-1.38,2.15-2.09.31-.28.58-.58.89-.86.06-.06.09-.06.15,0s.37.43.59.64c.06.07.06.1,0,.16-.56,1-1.11,1.9-1.69,2.86-.1.15-.19.33-.31.49s0,.09,0,.12c.43.77.83,1.54,1.26,2.31,0,.09.12.09.18.09H20.87a.24.24,0,0,0,.24-.12c.4-.77.83-1.51,1.26-2.28,0-.09,0-.12,0-.18-.64-1.11-1.26-2.22-1.9-3.29-.06-.09-.06-.16,0-.22.18-.21.34-.43.52-.64.06-.06.09-.06.16,0,.8.77,1.59,1.53,2.39,2.33.5.5,1,1,1.51,1.45a.24.24,0,0,1,.06.31l-2.49,4.42c-.06.12-.15.25-.21.4s-.1.09-.19.09h-1.2C18.9,16.9,16.84,16.9,14.75,16.9Z" fill="#fff"/>
    <path d="M19.61,18.2c-.22.39-.4.79-.59,1.16-.52,1.08-1.07,2.15-1.59,3.26a.24.24,0,0,1-.25.15H12.26c-.12,0-.18,0-.21-.12-.71-1.44-1.42-2.89-2.15-4.33,0-.09,0-.12.06-.12h2.36c.1,0,.13,0,.16.12.37.7.74,1.44,1.1,2.15a.22.22,0,0,0,.22.12h1.87a.17.17,0,0,0,.19-.12c.37-.74.74-1.45,1.11-2.18a.14.14,0,0,1,.15-.09Z" fill="#fff"/>
  </g>
</svg>
